<?xml version="1.0" encoding="UTF-8" standalone="no"?>
<svg
   id="e72771cf-8548-4b13-9199-aa8cd6e4fee1"
   data-name="Layer 1"
   width="1001"
   height="550.95456"
   viewBox="0 0 1001 550.95456"
   version="1.1"
   sodipodi:docname="img-working.svg"
   inkscape:version="1.1 (c68e22c387, 2021-05-23)"
   xmlns:inkscape="http://www.inkscape.org/namespaces/inkscape"
   xmlns:sodipodi="http://sodipodi.sourceforge.net/DTD/sodipodi-0.dtd"
   xmlns="http://www.w3.org/2000/svg"
   xmlns:svg="http://www.w3.org/2000/svg">
  <defs
     id="defs119" />
  <sodipodi:namedview
     id="namedview117"
     pagecolor="#ffffff"
     bordercolor="#666666"
     borderopacity="1.0"
     inkscape:pageshadow="2"
     inkscape:pageopacity="0.0"
     inkscape:pagecheckerboard="0"
     showgrid="false"
     inkscape:zoom="0.71871585"
     inkscape:cx="517.58981"
     inkscape:cy="231.66318"
     inkscape:window-width="1366"
     inkscape:window-height="745"
     inkscape:window-x="-8"
     inkscape:window-y="-8"
     inkscape:window-maximized="1"
     inkscape:current-layer="e72771cf-8548-4b13-9199-aa8cd6e4fee1" />
  <title
     id="title2">unDraw_1000</title>
  <rect
     x="1"
     y="547.69751"
     width="1000"
     height="2"
     fill="#3f3d56"
     id="rect4" />
  <path
     d="M735.89835,598.07072s0,68.257,15.66554,86.16044c0,0,3.3569,8.95173,4.47587,12.30863a47.0472,47.0472,0,0,0,2.23793,5.59484v4.47587s30.2121-3.3569,33.569-11.18967l-5.59483-6.7138s-1.119-1.119,0-4.47587a2.29864,2.29864,0,0,0-2.23794-3.3569l-7.83276-17.90347,1.119-73.8518-5.59483-101.826-48.11557-2.23793Z"
     transform="translate(-99.5 -174.52272)"
     fill="#2f2e41"
     id="path6" />
  <path
     d="M760.51562,699.89669s-7.83276,23.49831,0,24.61727,76.08974,2.23794,74.97078-6.7138-23.49831-7.83276-23.49831-7.83276l-23.4983-14.54657Z"
     transform="translate(-99.5 -174.52272)"
     fill="#2f2e41"
     id="path8" />
  <path
     d="M691.13968,487.293s-2.23793,14.54657,6.71381,30.2121,3.3569,68.257,3.3569,68.257L621.76375,655.138s15.66553,26.85521,21.26036,25.73624,93.99321-72.73284,93.99321-72.73284l34.688-116.37254Z"
     transform="translate(-99.5 -174.52272)"
     fill="#2f2e41"
     id="path10" />
  <path
     d="M622.85553,652.17313s-24.04067,5.96395-20.79253,13.17879,38.84421,65.46589,45.8061,59.72849-5.96395-24.04067-5.96395-24.04067l-.29326-27.63488Z"
     transform="translate(-99.5 -174.52272)"
     fill="#2f2e41"
     id="path12" />
  <circle
     cx="635.27939"
     cy="104.64248"
     r="25.73624"
     fill="#ffb8b8"
     id="circle14" />
  <path
     d="M714.52967,288.24584l1.13832,33.11773,21.65512,8.55623s2.12366-33.91038,5.12142-35.79035S714.52967,288.24584,714.52967,288.24584Z"
     transform="translate(-99.5 -174.52272)"
     fill="#ffb8b8"
     id="path16" />
  <path
     d="M742.61216,333.99457s-30.21211-30.2121-38.04487-29.09314-7.83277,4.47587-7.83277,6.7138,2.23793,3.3569,0,4.47587-4.47587,0-4.47587,3.3569-20.1414,36.9259-13.4276,73.85181,14.54657,54.82937,11.18967,74.97077-1.119,24.61727-1.119,24.61727,83.92251,6.7138,85.04147-1.119-3.3569-3.3569,2.23794-8.95173,3.3569-5.59484,3.3569-8.95174S754.92079,333.99457,742.61216,333.99457Z"
     transform="translate(-99.5 -174.52272)"
     fill="#575a89"
     id="path18"
     style="fill:#19b9eb;fill-opacity:1" />
  <path
     d="M726.94662,486.17405s13.4276,32.45,23.4983,24.61726-4.47586-34.688-4.47586-34.688Z"
     transform="translate(-99.5 -174.52272)"
     fill="#ffb8b8"
     id="path20" />
  <path
     d="M694.49658,336.2325s-26.29016,3.00986-16.502,51.29895,47.833,104.23743,47.833,104.23743l25.73624-12.30863-33.569-66.019,7.83276-41.40177S730.30352,332.8756,694.49658,336.2325Z"
     transform="translate(-99.5 -174.52272)"
     fill="#575a89"
     id="path22"
     style="fill:#19b9eb;fill-opacity:1" />
  <polygon
     points="617.935 239.478 654.861 301.021 651.504 304.378 617.935 239.478"
     opacity="0.2"
     id="polygon24" />
  <polygon
     points="598.39 268.158 628.006 316.687 617.935 316.687 598.39 268.158"
     opacity="0.2"
     id="polygon26" />
  <path
     d="M723.13083,294.63c2.08351-1.10162,4.50375-1.32873,6.7589-2.01345,8.06829-2.44973,13.47322-11.5705,11.74763-19.824a10.11528,10.11528,0,0,1-.42376-3.26724c.30165-2.44445,2.8029-4.0217,5.20137-4.58178s4.95039-.47874,7.24281-1.37937c3.53954-1.3906,5.89072-5.02809,6.4004-8.79668a18.17088,18.17088,0,0,0-2.42733-10.952l-.86635,2.493a9.24721,9.24721,0,0,1-2.83074-4.23375,5.832,5.832,0,0,0-4.4435,3.5733c-1.39062.82-1.591-2.54755-3.127-3.04435a2.75911,2.75911,0,0,0-1.91726.4729c-3.0952,1.44361-6.69134.20933-10.01157-.59088a37.6878,37.6878,0,0,0-17.49529-.0206c-3.82183.91158-7.60478,2.499-10.33957,5.32a24.80936,24.80936,0,0,0-4.83683,8.31133c-2.93319,7.38193-4.87092,15.36941-3.90262,23.2535a32.91485,32.91485,0,0,0,7.75684,17.43943c2.21469,2.55167,9.4403,11.45374,13.40222,9.936C723.99739,304.81835,717.26524,297.7313,723.13083,294.63Z"
     transform="translate(-99.5 -174.52272)"
     fill="#2f2e41"
     id="path28" />
  <rect
     x="709.49624"
     y="568.96077"
     width="82.62857"
     height="1.59219"
     transform="matrix(0.35636, -0.93435, 0.93435, 0.35636, -148.60029, 893.71385)"
     opacity="0.2"
     id="rect30" />
  <circle
     cx="642.95352"
     cy="164.02378"
     r="1.59181"
     fill="#d0cde1"
     id="circle32" />
  <line
     x1="642.95352"
     y1="164.02378"
     x2="656.48391"
     y2="207.79855"
     fill="#d0cde1"
     id="line34" />
  <path
     d="M755.98391,383.11718a.79551.79551,0,0,1-.76016-.56118l-13.53038-43.77438a.79568.79568,0,1,1,1.5203-.47024l13.53039,43.77516a.79658.79658,0,0,1-.76015,1.03064Z"
     transform="translate(-99.5 -174.52272)"
     fill="#d0cde1"
     id="path36" />
  <polygon
     points="253.312 479.929 249.14 530.824 264.993 530.824 273.336 479.929 253.312 479.929"
     fill="#ffb8b8"
     id="polygon38" />
  <polygon
     points="355.103 479.929 350.931 530.824 366.784 530.824 375.127 479.929 355.103 479.929"
     fill="#ffb8b8"
     id="polygon40" />
  <path
     d="M461.90074,374.76009l-1.60547,24.27231-9.03841,73.34073s-11.37724,34.55327,4.98458,30.87453,11.11169-32.7066,11.11169-32.7066l10.6171-68.59005,4.24392-24.26988Z"
     transform="translate(-99.5 -174.52272)"
     fill="#ffb8b8"
     id="path42" />
  <polygon
     points="376.379 165.795 383.888 212.519 358.023 210.016 365.532 164.126 376.379 165.795"
     fill="#575a89"
     id="polygon44"
     style="fill:#19b9eb;fill-opacity:1" />
  <circle
     cx="340.91885"
     cy="100.29836"
     r="23.36187"
     fill="#ffb8b8"
     id="circle46" />
  <path
     d="M455.85438,282.74742s7.50917,16.68706,11.68093,25.86493,3.33741,10.84659,3.33741,10.84659H436.66427s3.33741-23.36187,0-25.86493S455.85438,282.74742,455.85438,282.74742Z"
     transform="translate(-99.5 -174.52272)"
     fill="#ffb8b8"
     id="path48" />
  <path
     d="M450.01391,403.72855s46.72374-57.57033,23.36187-87.607c1.29181-.80515-8.082-11.6267-14.184-9.17788-1.09507.43946-24.19623,5.00611-27.53364,8.34353s-17.93858,20.44163-17.93858,20.44163-8.34353,10.01223-11.68094,31.7054-10.4294,32.95693-10.4294,32.95693"
     transform="translate(-99.5 -174.52272)"
     fill="#575a89"
     id="path50"
     style="fill:#19b9eb;fill-opacity:1" />
  <path
     d="M391.60923,400.39114l-1.66871,13.34964L355.31489,544.317,337.37631,659.87479c8.58529,14.05256,27.16064,16.29605,55.06727,7.50918l5.42329-113.88913,25.03058-62.57645L433.32686,667.384c22.67746,7.53672,43.13751,5.92643,61.74209-3.33741L463.78073,477.56875s15.43552-27.11646-12.09812-62.15926l-1.6687-11.68094"
     transform="translate(-99.5 -174.52272)"
     fill="#2f2e41"
     id="path52" />
  <path
     d="M416.6398,370.35445,407.46193,392.882l-31.7054,66.7482s-21.69317,29.20234-5.00612,30.871,20.85882-27.53364,20.85882-27.53364l31.7054-61.74209,11.68093-21.69317Z"
     transform="translate(-99.5 -174.52272)"
     fill="#ffb8b8"
     id="path54" />
  <path
     d="M367.83018,686.1569v13.46867s9.62047,22.12709,2.88614,24.05119-25.01324,0-27.89938,0-33.67167,2.88614-32.70962-5.77229,21.16505-14.43071,21.16505-14.43071l18.2789-17.31686Z"
     transform="translate(-99.5 -174.52272)"
     fill="#2f2e41"
     id="path56" />
  <path
     d="M470.45555,686.1569v13.46867s9.62047,22.12709,2.88614,24.05119-25.01324,0-27.89938,0-33.67167,2.88614-32.70962-5.77229,21.16505-14.43071,21.16505-14.43071l18.2789-17.31686Z"
     transform="translate(-99.5 -174.52272)"
     fill="#2f2e41"
     id="path58" />
  <path
     d="M445.00779,312.78412s-16.687,4.17176-24.19622,30.871-9.17788,30.871-9.17788,30.871l25.03058,11.68094L455.02,349.49563S465.86661,317.79023,445.00779,312.78412Z"
     transform="translate(-99.5 -174.52272)"
     fill="#575a89"
     id="path60"
     style="fill:#19b9eb;fill-opacity:1" />
  <path
     d="M415.46058,267.66936s-4.56507-35.52744,32.68287-23.87716c0,0,26.60272-4.88121,35.32679,28.39472L492.304,307.0683l-4.30511-2.34324-2.00706,4.38722L479.0155,310.879l-2.98532-5.9253-1.44416,7.19554-57.13952,5.69633s25.59165-15.13473,25.99746-42.25978l-4.87467,5.15126Z"
     transform="translate(-99.5 -174.52272)"
     fill="#2f2e41"
     id="path62" />
  <polygon
     points="350.931 172.887 332.958 209.722 336.747 211.267 350.931 172.887"
     opacity="0.2"
     id="polygon64" />
  <polygon
     points="330.072 167.881 312.551 200.421 309.213 200.421 330.072 167.881"
     opacity="0.2"
     id="polygon66" />
  <polygon
     points="376.234 184.032 363.386 210.535 371.441 210.535 376.234 184.032"
     opacity="0.2"
     id="polygon68" />
  <rect
     x="753.40179"
     y="43.84301"
     width="27.57756"
     height="2.29813"
     fill="#3f3d56"
     id="rect70" />
  <rect
     x="790.17188"
     y="43.84301"
     width="27.57756"
     height="2.29813"
     fill="#3f3d56"
     id="rect72" />
  <rect
     x="843.60339"
     y="65.100723"
     width="27.57756"
     height="2.29813"
     fill="#3f3d56"
     id="rect74" />
  <rect
     x="880.94806"
     y="65.100723"
     width="27.57756"
     height="2.29813"
     fill="#3f3d56"
     id="rect76" />
  <rect
     x="827.51648"
     y="43.84301"
     width="81.009087"
     height="2.29813"
     fill="#3f3d56"
     id="rect78" />
  <rect
     x="753.40179"
     y="65.100723"
     width="81.009087"
     height="2.29813"
     fill="#3f3d56"
     id="rect80" />
  <rect
     x="753.40179"
     y="86.358421"
     width="81.009087"
     height="2.29813"
     fill="#3f3d56"
     id="rect82" />
  <rect
     x="852.22144"
     y="86.358421"
     width="56.304192"
     height="2.29813"
     fill="#3f3d56"
     id="rect84" />
  <polygon
     points="780.472,46.626 790.174,36.923 792.115,38.864 784.354,46.626 792.115,54.387 790.174,56.328 "
     fill="#19b9eb"
     id="polygon86"
     transform="translate(-44.523854,-2.7827409)" />
  <polygon
     points="977.245,99.201 985.006,91.439 977.245,83.678 979.186,81.737 988.888,91.439 979.186,101.142 "
     fill="#19b9eb"
     id="polygon88"
     transform="translate(-44.523854,-2.7827409)" />
  <rect
     x="173.19339"
     y="907.47693"
     width="19.810659"
     height="2.74546"
     transform="rotate(-73.13998)"
     fill="#d0cde1"
     id="rect90" />
  <path
     d="M 154.02412,134.25963 142.75759,145.52615 131.446,134.21456 a 29.92092,29.92092 0 0 1 22.57812,0.0451 z"
     fill="#19b9eb"
     id="path100" />
  <path
     d="m 142.75767,146.43637 -17.51435,-17.50712 17.51435,-17.51467 17.50744,17.51435 z m -15.693,-17.50775 15.693,15.687 15.68669,-15.68669 -15.68669,-15.693 z"
     fill="#3f3d56"
     id="path102" />
  <polygon
     points="126.27,62.332 122.168,57.485 122.168,37.828 130.372,37.828 130.372,57.485 "
     fill="#19b9eb"
     id="polygon104"
     transform="translate(16.696445,20.870557)" />
  <path
     d="m 156.01982,42.746767 h -4.40669 a 10.43192,10.43192 0 0 0 1.83574,-5.92481 c 0,-5.78924 -4.69311,-15.9514 -10.48236,-15.9514 -5.78925,0 -10.48235,10.16216 -10.48235,15.9514 a 10.43192,10.43192 0 0 0 1.83574,5.92481 h -4.40669 a 3.36373,3.36373 0 0 0 -3.35387,3.35386 v 2.40738 a 3.36373,3.36373 0 0 0 3.35387,3.35386 h 26.10661 a 3.36373,3.36373 0 0 0 3.35387,-3.35386 v -2.40738 a 3.36373,3.36373 0 0 0 -3.35387,-3.35386 z"
     fill="#3f3d56"
     id="path106" />
  <path
     d="m 146.99115,95.661687 a 4.02464,4.02464 0 0 1 -8.04927,0 c 0,-2.22275 4.02463,-6.70773 4.02463,-6.70773 0,0 4.02464,4.48498 4.02464,6.70773 z"
     fill="#19b9eb"
     id="path108" />
  <path
     d="m 142.96651,87.177087 -6.438,-5.72254 v -33.76689 h 12.876 v 33.76689 z m -5.15041,-6.301 5.15041,4.57829 5.15042,-4.57829 V 48.975267 H 137.8161 Z"
     fill="#3f3d56"
     id="path110" />
  <rect
     x="-120.8807"
     y="-226.02141"
     width="23.478571"
     height="23.478571"
     transform="rotate(150)"
     fill="#3f3d56"
     id="rect112" />
  <rect
     x="-19.815033"
     y="-165.44092"
     width="23.478571"
     height="23.478571"
     transform="rotate(150)"
     fill="#d0cde1"
     id="rect114" />
  <path
     d="m 834.96298,359.8322 -11.26653,11.26652 -11.31159,-11.31159 a 29.92092,29.92092 0 0 1 22.57812,0.0451 z"
     fill="#19b9eb"
     id="path100-5" />
  <path
     d="m 823.69653,372.00894 -17.51435,-17.50712 17.51435,-17.51467 17.50744,17.51435 z m -15.693,-17.50775 15.693,15.687 15.68669,-15.68669 -15.68669,-15.693 z"
     fill="#3f3d56"
     id="path102-1" />
  <rect
     x="-330.15689"
     y="-485.21301"
     width="23.478571"
     height="23.478571"
     transform="rotate(150)"
     fill="#3f3d56"
     id="rect112-0" />
  <path
     d="m 132.31913,411.61433 -11.26653,11.26652 -11.31159,-11.31159 a 29.92092,29.92092 0 0 1 22.57812,0.0451 z"
     fill="#19b9eb"
     id="path100-5-0" />
  <path
     d="m 121.05268,423.79107 -17.51435,-17.50712 17.51435,-17.51467 17.50744,17.51435 z m -15.693,-17.50775 15.693,15.687 15.68669,-15.68669 -15.68669,-15.693 z"
     fill="#3f3d56"
     id="path102-1-5" />
</svg>
