<?xml version="1.0" encoding="UTF-8" standalone="no"?>
<svg
   id="b2f46e39-848f-4802-b668-f0d450449910"
   data-name="Layer 1"
   width="995.74509"
   height="657.0383"
   viewBox="0 0 995.74509 657.0383"
   version="1.1"
   sodipodi:docname="img1.svg"
   inkscape:version="1.1 (c68e22c387, 2021-05-23)"
   inkscape:export-filename="C:\Users\Christian16\Downloads\Marking Apps\home-page.png"
   inkscape:export-xdpi="512"
   inkscape:export-ydpi="512"
   xmlns:inkscape="http://www.inkscape.org/namespaces/inkscape"
   xmlns:sodipodi="http://sodipodi.sourceforge.net/DTD/sodipodi-0.dtd"
   xmlns="http://www.w3.org/2000/svg"
   xmlns:svg="http://www.w3.org/2000/svg">
  <defs
     id="defs51" />
  <sodipodi:namedview
     id="namedview49"
     pagecolor="#ffffff"
     bordercolor="#666666"
     borderopacity="1.0"
     inkscape:pageshadow="2"
     inkscape:pageopacity="0.0"
     inkscape:pagecheckerboard="0"
     showgrid="false"
     inkscape:zoom="0.42615474"
     inkscape:cx="422.38179"
     inkscape:cy="383.66346"
     inkscape:window-width="1366"
     inkscape:window-height="745"
     inkscape:window-x="-8"
     inkscape:window-y="-8"
     inkscape:window-maximized="1"
     inkscape:current-layer="b2f46e39-848f-4802-b668-f0d450449910" />
  <path
     d="m 767.75201,180.87683 h -79.74145 a 11.47812,11.47812 0 0 1 -9.06567,-4.39356 v 0 a 11.62154,11.62154 0 0 1 -2.17652,-9.96777 201.63052,201.63052 0 0 0 -4.9e-4,-93.646998 11.62425,11.62425 0 0 1 2.17676,-9.96729 11.47753,11.47753 0 0 1 9.06592,-4.39355 h 79.74145 a 11.6235,11.6235 0 0 1 11.439,9.75537 337.96108,337.96108 0 0 1 0,102.858398 11.6235,11.6235 0 0 1 -11.439,9.7554 z"
     fill="#e6e6e6"
     id="path12"
     inkscape:export-filename="C:\Users\Christian16\Downloads\Marking Apps\home-page.png"
     inkscape:export-xdpi="512"
     inkscape:export-ydpi="512" />
  <path
     d="m 688.01056,64.507662 a 5.51264,5.51264 0 0 0 -4.35449,2.1084 5.65943,5.65943 0 0 0 -1.05371,4.85351 207.656,207.656 0 0 1 4.8e-4,96.445308 5.65638,5.65638 0 0 0 1.053,4.85254 l 4.9e-4,4.9e-4 a 5.5112,5.5112 0 0 0 4.35425,2.10889 h 79.74145 a 5.58248,5.58248 0 0 0 5.50879,-4.667 331.9854,331.9854 0 0 0 0,-101.035158 5.58248,5.58248 0 0 0 -5.50879,-4.667 z"
     fill="#ffffff"
     id="path14"
     inkscape:export-filename="C:\Users\Christian16\Downloads\Marking Apps\home-page.png"
     inkscape:export-xdpi="512"
     inkscape:export-ydpi="512" />
  <path
     d="m 750.35069,108.35838 h -41.845 a 6.00633,6.00633 0 0 1 -5.99977,-5.99977 v -2.34463 a 6.00633,6.00633 0 0 1 5.99977,-5.999768 h 41.845 a 6.00633,6.00633 0 0 1 5.99976,5.999768 v 2.34468 a 6.00632,6.00632 0 0 1 -5.99976,5.99972 z"
     fill="#e6e6e6"
     id="path18"
     style="fill:#e6e6e6;fill-opacity:1"
     inkscape:export-filename="C:\Users\Christian16\Downloads\Marking Apps\home-page.png"
     inkscape:export-xdpi="512"
     inkscape:export-ydpi="512" />
  <path
     d="m 750.35069,137.98416 h -41.845 a 6.00632,6.00632 0 0 1 -5.99977,-5.99976 v -2.34464 a 6.00632,6.00632 0 0 1 5.99977,-5.99976 h 41.845 a 6.00632,6.00632 0 0 1 5.99976,5.99976 v 2.34464 a 6.00632,6.00632 0 0 1 -5.99976,5.99976 z"
     fill="#e6e6e6"
     id="path20"
     inkscape:export-filename="C:\Users\Christian16\Downloads\Marking Apps\home-page.png"
     inkscape:export-xdpi="512"
     inkscape:export-ydpi="512" />
  <path
     d="m 750.10431,70.779662 h -42 a 4.50508,4.50508 0 0 1 -4.5,-4.5 v -8 a 4.50508,4.50508 0 0 1 4.5,-4.5 h 42 a 4.50508,4.50508 0 0 1 4.5,4.5 v 8 a 4.50508,4.50508 0 0 1 -4.5,4.5 z"
     fill="#cccccc"
     id="path28-7"
     style="fill:#19b9eb;fill-opacity:1"
     inkscape:export-filename="C:\Users\Christian16\Downloads\Marking Apps\home-page.png"
     inkscape:export-xdpi="512"
     inkscape:export-ydpi="512" />
  <path
     d="m 868.01912,193.10966 h -58.69529 a 8.4487002,8.5344321 0 0 1 -6.67297,-3.26678 v 0 a 8.5542673,8.6410705 0 0 1 -1.60207,-7.41143 148.41418,149.92019 0 0 0 -3.6e-4,-69.63021 8.5562621,8.6430855 0 0 1 1.60225,-7.41107 8.4482659,8.5339934 0 0 1 6.67315,-3.26678 h 58.69529 a 8.55571,8.6425278 0 0 1 8.41991,7.2535 248.76302,251.28731 0 0 1 0,76.47925 8.55571,8.6425278 0 0 1 -8.41991,7.25352 z"
     fill="#e6e6e6"
     id="path2"
     style="stroke-width:0.739795"
     inkscape:export-filename="C:\Users\Christian16\Downloads\Marking Apps\home-page.png"
     inkscape:export-xdpi="512"
     inkscape:export-ydpi="512" />
  <path
     d="m 809.32383,106.58463 a 4.0576891,4.0988639 0 0 0 -3.20521,1.56767 4.1657368,4.208008 0 0 0 -0.7756,3.60878 152.84936,154.40037 0 0 1 3.5e-4,71.71087 4.1634918,4.2057402 0 0 0 0.77508,3.60805 l 3.6e-4,3.6e-4 a 4.0566292,4.0977932 0 0 0 3.20504,1.56805 h 58.69529 a 4.1090962,4.1507927 0 0 0 4.05485,-3.4701 244.3645,246.84416 0 0 0 0,-75.1236 4.1090962,4.1507927 0 0 0 -4.05485,-3.4701 z"
     fill="#ffffff"
     id="path4"
     style="stroke-width:0.739795"
     inkscape:export-filename="C:\Users\Christian16\Downloads\Marking Apps\home-page.png"
     inkscape:export-xdpi="512"
     inkscape:export-ydpi="512" />
  <path
     d="m 855.21053,128.03627 h -30.80085 a 4.4210795,4.4659418 0 0 1 -4.41625,-4.46107 v -1.74332 a 4.4210795,4.4659418 0 0 1 4.41625,-4.46107 h 30.80085 a 4.4210795,4.4659418 0 0 1 4.41625,4.46107 v 1.74336 a 4.4210722,4.4659343 0 0 1 -4.41625,4.46103 z"
     fill="#e6e6e6"
     id="path6"
     style="stroke-width:0.739795"
     inkscape:export-filename="C:\Users\Christian16\Downloads\Marking Apps\home-page.png"
     inkscape:export-xdpi="512"
     inkscape:export-ydpi="512" />
  <path
     d="m 855.21053,150.06419 h -30.80085 a 4.4210722,4.4659343 0 0 1 -4.41625,-4.46105 v -1.74333 a 4.4210722,4.4659343 0 0 1 4.41625,-4.46106 h 30.80085 a 4.4210722,4.4659343 0 0 1 4.41625,4.46106 v 1.74333 a 4.4210722,4.4659343 0 0 1 -4.41625,4.46105 z"
     fill="#e6e6e6"
     id="path8"
     style="stroke-width:0.739795"
     inkscape:export-filename="C:\Users\Christian16\Downloads\Marking Apps\home-page.png"
     inkscape:export-xdpi="512"
     inkscape:export-ydpi="512" />
  <path
     d="m 855.21053,172.09213 h -30.80085 a 4.4210795,4.4659418 0 0 1 -4.41625,-4.46106 v -1.74333 a 4.4210722,4.4659343 0 0 1 4.41625,-4.46105 h 30.80085 a 4.4210722,4.4659343 0 0 1 4.41625,4.46105 v 1.74333 a 4.4210722,4.4659343 0 0 1 -4.41625,4.46106 z"
     fill="#e6e6e6"
     id="path10"
     style="stroke-width:0.739795"
     inkscape:export-filename="C:\Users\Christian16\Downloads\Marking Apps\home-page.png"
     inkscape:export-xdpi="512"
     inkscape:export-ydpi="512" />
  <path
     d="M 853.55704,110.50457 H 822.6421 a 3.3160544,3.3497035 0 0 1 -3.31232,-3.34593 v -5.94831 a 3.3160544,3.3497035 0 0 1 3.31232,-3.345928 h 30.91494 a 3.3160544,3.3497035 0 0 1 3.31232,3.345928 v 5.94831 a 3.3160544,3.3497035 0 0 1 -3.31232,3.34593 z"
     fill="#cccccc"
     id="path26-4"
     style="fill:#e6e6e6;fill-opacity:1;stroke-width:0.739795"
     inkscape:export-filename="C:\Users\Christian16\Downloads\Marking Apps\home-page.png"
     inkscape:export-xdpi="512"
     inkscape:export-ydpi="512" />
  <path
     d="m 799.63056,314.63107 h -60.44914 a 8.7011519,9.1470245 0 0 1 -6.87236,-3.50127 v 0 a 8.8098734,9.2613173 0 0 1 -1.64994,-7.94341 152.84888,160.68131 0 0 0 -3.7e-4,-74.6282 8.8119278,9.2634769 0 0 1 1.65012,-7.94303 8.7007046,9.1465544 0 0 1 6.87255,-3.50126 h 60.44914 a 8.8113592,9.2628793 0 0 1 8.6715,7.77415 256.1962,269.32444 0 0 1 0,81.96885 8.8113592,9.2628793 0 0 1 -8.6715,7.77417 z"
     fill="#e6e6e6"
     id="path12-5"
     style="stroke-width:0.777244"
     inkscape:export-filename="C:\Users\Christian16\Downloads\Marking Apps\home-page.png"
     inkscape:export-xdpi="512"
     inkscape:export-ydpi="512" />
  <path
     d="m 739.18142,221.89536 a 4.178935,4.393076 0 0 0 -3.30098,1.6802 4.2902113,4.5100544 0 0 0 -0.79878,3.86781 157.41658,165.48307 0 0 1 3.6e-4,76.8582 4.2878992,4.5076238 0 0 0 0.79825,3.86703 l 3.7e-4,3.9e-4 a 4.1778434,4.3919284 0 0 0 3.3008,1.6806 h 60.44914 a 4.2318782,4.4487322 0 0 0 4.17601,-3.71918 251.66625,264.56237 0 0 0 0,-80.51589 4.2318782,4.4487322 0 0 0 -4.17601,-3.71918 z"
     fill="#ffffff"
     id="path14-7"
     style="stroke-width:0.777244"
     inkscape:export-filename="C:\Users\Christian16\Downloads\Marking Apps\home-page.png"
     inkscape:export-xdpi="512"
     inkscape:export-ydpi="512" />
  <path
     d="m 786.43924,256.84042 h -31.72119 a 4.5531837,4.7865023 0 0 1 -4.54821,-4.78128 v -1.86845 a 4.5531837,4.7865023 0 0 1 4.54821,-4.78128 h 31.72119 a 4.5531837,4.7865023 0 0 1 4.54821,4.78128 v 1.86849 a 4.5531762,4.7864943 0 0 1 -4.54821,4.78124 z"
     fill="#e6e6e6"
     id="path18-8"
     style="stroke-width:0.777244"
     inkscape:export-filename="C:\Users\Christian16\Downloads\Marking Apps\home-page.png"
     inkscape:export-xdpi="512"
     inkscape:export-ydpi="512" />
  <path
     d="m 786.43924,280.44949 h -31.72119 a 4.5531762,4.7864943 0 0 1 -4.54821,-4.78127 v -1.86846 a 4.5531762,4.7864943 0 0 1 4.54821,-4.78127 h 31.72119 a 4.5531762,4.7864943 0 0 1 4.54821,4.78127 v 1.86846 a 4.5531762,4.7864943 0 0 1 -4.54821,4.78127 z"
     fill="#e6e6e6"
     id="path20-8"
     style="stroke-width:0.777244"
     inkscape:export-filename="C:\Users\Christian16\Downloads\Marking Apps\home-page.png"
     inkscape:export-xdpi="512"
     inkscape:export-ydpi="512" />
  <path
     d="m 786.25247,226.89357 h -31.83869 a 3.4151399,3.5901417 0 0 1 -3.41129,-3.58609 v -6.37528 a 3.4151399,3.5901417 0 0 1 3.41129,-3.58609 h 31.83869 a 3.4151399,3.5901417 0 0 1 3.41129,3.58609 v 6.37528 a 3.4151399,3.5901417 0 0 1 -3.41129,3.58609 z"
     fill="#cccccc"
     id="path28-7-3"
     style="fill:#19b9eb;fill-opacity:1;stroke-width:0.777244"
     inkscape:export-filename="C:\Users\Christian16\Downloads\Marking Apps\home-page.png"
     inkscape:export-xdpi="512"
     inkscape:export-ydpi="512" />
  <path
     d="m 188.19146,248.92725 h -55.1876 a 7.9437969,7.4516824 0 0 1 -6.27418,-2.85233 v 0 a 8.0430553,7.5447917 0 0 1 -1.50633,-6.47116 139.54479,130.90006 0 0 0 -3.4e-4,-60.79634 8.0449308,7.5465511 0 0 1 1.50649,-6.47084 7.9433886,7.4512993 0 0 1 6.27436,-2.85232 h 55.1876 a 8.0444117,7.5460642 0 0 1 7.91672,6.33326 233.89668,219.40689 0 0 1 0,66.77645 8.0444117,7.5460642 0 0 1 -7.91672,6.33328 z"
     fill="#e6e6e6"
     id="path12-5-2"
     style="stroke-width:0.670302"
     inkscape:export-filename="C:\Users\Christian16\Downloads\Marking Apps\home-page.png"
     inkscape:export-xdpi="512"
     inkscape:export-ydpi="512" />
  <path
     d="m 133.00386,173.3795 a 3.8151973,3.5788476 0 0 0 -3.01366,1.36879 3.916788,3.6741448 0 0 0 -0.72925,3.15094 143.71492,134.81185 0 0 1 3.3e-4,62.61302 3.9146771,3.6721647 0 0 0 0.72876,3.15031 l 3.4e-4,3.2e-4 a 3.8142007,3.5779128 0 0 0 3.0135,1.3691 h 55.18759 a 3.8635323,3.6241883 0 0 0 3.81254,-3.02985 229.76102,215.52743 0 0 0 0,-65.59279 3.8635323,3.6241883 0 0 0 -3.81254,-3.02985 z"
     fill="#ffffff"
     id="path14-7-4"
     style="stroke-width:0.670302"
     inkscape:export-filename="C:\Users\Christian16\Downloads\Marking Apps\home-page.png"
     inkscape:export-xdpi="512"
     inkscape:export-ydpi="512" />
  <path
     d="m 176.14833,201.84772 h -28.96016 a 4.1568711,3.8993549 0 0 1 -4.15234,-3.89509 v -1.52216 a 4.1568711,3.8993549 0 0 1 4.15234,-3.89509 h 28.96016 a 4.1568711,3.8993549 0 0 1 4.15232,3.89509 v 1.52219 a 4.1568642,3.8993484 0 0 1 -4.15232,3.89506 z"
     fill="#e6e6e6"
     id="path18-8-3"
     style="stroke-width:0.670302"
     inkscape:export-filename="C:\Users\Christian16\Downloads\Marking Apps\home-page.png"
     inkscape:export-xdpi="512"
     inkscape:export-ydpi="512" />
  <path
     d="m 176.14833,221.081 h -28.96016 a 4.1568642,3.8993484 0 0 1 -4.15234,-3.89509 v -1.52216 a 4.1568642,3.8993484 0 0 1 4.15234,-3.89508 h 28.96016 a 4.1568642,3.8993484 0 0 1 4.15232,3.89508 v 1.52216 a 4.1568642,3.8993484 0 0 1 -4.15232,3.89509 z"
     fill="#e6e6e6"
     id="path20-8-2"
     style="stroke-width:0.670302"
     inkscape:export-filename="C:\Users\Christian16\Downloads\Marking Apps\home-page.png"
     inkscape:export-xdpi="512"
     inkscape:export-ydpi="512" />
  <path
     d="m 175.97781,177.45133 h -29.06743 a 3.1178835,2.924732 0 0 1 -3.11437,-2.92143 v -5.19366 a 3.1178835,2.924732 0 0 1 3.11437,-2.92144 h 29.06743 a 3.1178835,2.924732 0 0 1 3.11437,2.92144 v 5.19366 a 3.1178835,2.924732 0 0 1 -3.11437,2.92143 z"
     fill="#cccccc"
     id="path28-7-3-1"
     style="fill:#19b9eb;fill-opacity:1;stroke-width:0.670302"
     inkscape:export-filename="C:\Users\Christian16\Downloads\Marking Apps\home-page.png"
     inkscape:export-xdpi="512"
     inkscape:export-ydpi="512" />
  <rect
     x="223.22644"
     y="382.13629"
     width="89.95858"
     height="2"
     fill="#2f2e41"
     id="rect16-9"
     style="fill:#2f2e41;fill-opacity:1;stroke-width:0.30236"
     inkscape:export-filename="C:\Users\Christian16\Downloads\Marking Apps\home-page.png"
     inkscape:export-xdpi="512"
     inkscape:export-ydpi="512" />
  <polygon
     points="365.998,643.436 352.162,628.942 332.398,628.942 332.398,648.706 "
     fill="#ffb8b8"
     id="polygon22"
     transform="translate(189.45268,-33.093771)"
     inkscape:export-filename="C:\Users\Christian16\Downloads\Marking Apps\home-page.png"
     inkscape:export-xdpi="512"
     inkscape:export-ydpi="512" />
  <path
     d="m 528.28285,623.61318 33.236,-10.93289 a 6.46384,6.46384 0 0 0 3.76164,-9.03088 v 0 A 6.46383,6.46383 0 0 0 559.0633,600.091 l -7.5392,0.5094 -2.95462,-1.66282 a 1.71864,1.71864 0 0 0 -2.4321,2.15212 l 2.7247,6.61714 -27.67067,-1.97648 -1.36525,10.922 a 6.48147,6.48147 0 0 0 8.45669,6.96082 z"
     fill="#2f2e41"
     id="path24"
     inkscape:export-filename="C:\Users\Christian16\Downloads\Marking Apps\home-page.png"
     inkscape:export-xdpi="512"
     inkscape:export-ydpi="512" />
  <path
     d="m 430.38411,599.06176 34.91776,9.22356 c -6.43127,-13.34134 -10.39163,-25.14583 -7.90591,-32.94128 l -16.47064,-1.97648 z"
     fill="#ffb8b8"
     id="path26"
     inkscape:export-filename="C:\Users\Christian16\Downloads\Marking Apps\home-page.png"
     inkscape:export-xdpi="512"
     inkscape:export-ydpi="512" />
  <path
     d="m 432.5307,610.77041 36.12873,2.34259 a 6.68859,6.68859 0 0 0 7.09939,-7.21643 v 0 a 6.68861,6.68861 0 0 0 -4.59385,-5.81747 l -7.43422,-2.42311 -2.19407,-2.73754 a 1.77841,1.77841 0 0 0 -3.16605,1.12654 l 0.0597,7.40476 -25.79974,-12.58559 -5.52939,9.9575 a 6.70685,6.70685 0 0 0 5.42952,9.94875 z"
     fill="#2f2e41"
     id="path28"
     inkscape:export-filename="C:\Users\Christian16\Downloads\Marking Apps\home-page.png"
     inkscape:export-xdpi="512"
     inkscape:export-ydpi="512" />
  <circle
     cx="546.87543"
     cy="168.87491"
     r="24.376551"
     fill="#ffb8b8"
     id="circle30"
     inkscape:export-filename="C:\Users\Christian16\Downloads\Marking Apps\home-page.png"
     inkscape:export-xdpi="512"
     inkscape:export-ydpi="512" />
  <path
     d="m 508.19661,200.61157 28.17744,21.30489 c 4.55407,-17.38739 10.0199,-29.80731 17.18138,-32.98823 l -28.17745,-16.49411 z"
     fill="#ffb8b8"
     id="path32"
     inkscape:export-filename="C:\Users\Christian16\Downloads\Marking Apps\home-page.png"
     inkscape:export-xdpi="512"
     inkscape:export-ydpi="512" />
  <polygon
     points="245.895,606.197 269.949,616.506 325.616,485.241 330.084,631.282 354.138,629.908 380.94,401.052 378.879,387.994 287.817,408.268 286.443,481.804 "
     fill="#2f2e41"
     id="polygon34"
     transform="translate(189.45268,-33.093771)"
     inkscape:export-filename="C:\Users\Christian16\Downloads\Marking Apps\home-page.png"
     inkscape:export-xdpi="512"
     inkscape:export-ydpi="512" />
  <path
     d="m 574.5167,161.78167 c 0,0 -15.80686,-14.43236 -20.61765,-8.24706 -4.81079,6.1853 -6.18529,7.5598 -8.93431,7.5598 -2.74902,0 -9.62157,7.5598 -9.62157,7.5598 0,0 -3.43627,-6.87254 -7.5598,-1.37451 -4.12353,5.49803 -4.81079,13.7451 -4.81079,13.7451 0,0 -15.1196,-35.05 11.68334,-41.92254 26.80294,-6.87254 46.04607,14.43235 39.86078,22.67941 z"
     fill="#2f2e41"
     id="path36"
     inkscape:export-filename="C:\Users\Christian16\Downloads\Marking Apps\home-page.png"
     inkscape:export-xdpi="512"
     inkscape:export-ydpi="512" />
  <path
     d="m 471.08484,386.17038 c 13.05785,-5.718 13.44275,-1.23021 32.301,6.18529 23.75157,2.94831 38.85054,3.32629 46.3897,-6.52892 3.08577,-19.56617 5.61482,-38.32822 7.17491,-56.16937 q 0.48447,-5.51518 0.83843,-10.92044 c 2.749,-41.97066 -0.61847,-78.457 -15.91677,-107.81655 l -27.49019,-20.61765 -8.96871,6.50829 c -21.42168,15.5457 -18.0886,39.4278 -20.93376,65.74282 z"
     fill="#19b9eb"
     id="path38"
     inkscape:export-filename="C:\Users\Christian16\Downloads\Marking Apps\home-page.png"
     inkscape:export-xdpi="512"
     inkscape:export-ydpi="512" />
  <polygon
     points="379.222,400.708 377.848,388.338 364.79,388.338 364.79,413.079 "
     fill="#ffb8b8"
     id="polygon40"
     transform="translate(189.45268,-33.093771)"
     inkscape:export-filename="C:\Users\Christian16\Downloads\Marking Apps\home-page.png"
     inkscape:export-xdpi="512"
     inkscape:export-ydpi="512" />
  <path
     d="m 516.15257,255.93558 c 0,0 -40.60272,52.91868 -11.60079,76.97255 29.00193,24.05387 45.22373,39.17352 45.22373,39.17352 0,0 -1.7208,-103.77548 -33.62294,-116.14607 z"
     opacity="0.2"
     id="path42"
     inkscape:export-filename="C:\Users\Christian16\Downloads\Marking Apps\home-page.png"
     inkscape:export-xdpi="512"
     inkscape:export-ydpi="512" />
  <path
     d="m 531.9069,308.85426 25.04353,20.80317 q 0.48447,-5.51518 0.83843,-10.92044 l -16.94765,-75.8592 z"
     opacity="0.2"
     id="path44"
     inkscape:export-filename="C:\Users\Christian16\Downloads\Marking Apps\home-page.png"
     inkscape:export-xdpi="512"
     inkscape:export-ydpi="512" />
  <path
     d="m 550.11915,371.73803 19.93039,-15.80686 -26.11568,-65.97647 -0.59285,-68.77093 a 15.65921,15.65921 0 0 0 -10.41264,-14.61934 v 0 a 15.6592,15.6592 0 0 0 -20.90375,14.54273 l -1.079,79.84363 z"
     fill="#19b9eb"
     id="path46"
     inkscape:export-filename="C:\Users\Christian16\Downloads\Marking Apps\home-page.png"
     inkscape:export-xdpi="512"
     inkscape:export-ydpi="512" />
  <rect
     x="217.42993"
     y="354.26746"
     width="26.418669"
     height="1.2306628"
     fill="#ffffff"
     id="rect93"
     style="stroke-width:0.524191"
     inkscape:export-filename="C:\Users\Christian16\Downloads\Marking Apps\home-page.png"
     inkscape:export-xdpi="512"
     inkscape:export-ydpi="512" />
  <polygon
     points="479.182,268.426 535.565,270.727 542.469,232.754 494.14,217.796 "
     fill="#ffb8b8"
     id="polygon111"
     transform="matrix(0.51383801,0,0,0.5347523,-4.2821707,96.528198)"
     inkscape:export-filename="C:\Users\Christian16\Downloads\Marking Apps\home-page.png"
     inkscape:export-xdpi="512"
     inkscape:export-ydpi="512" />
  <path
     d="m 252.88978,196.08899 0.28037,-9.59322 -14.04136,-3.66356 -25.2802,-7.67544 a 5.2774966,5.4923019 0 1 0 -2.81668,6.714 l 24.57683,10.5138 z"
     fill="#ffb8b8"
     id="path113"
     style="stroke-width:0.524191"
     inkscape:export-filename="C:\Users\Christian16\Downloads\Marking Apps\home-page.png"
     inkscape:export-xdpi="512"
     inkscape:export-ydpi="512" />
  <path
     d="m 243.84181,196.02178 7.89888,-11.72467 0.19711,0.0273 c 0.12396,0.017 12.51117,1.74169 20.63191,4.25841 a 6.4915776,6.7557986 0 0 1 4.20358,3.63729 6.8084924,7.0856124 0 0 1 -0.94687,7.70569 7.2825285,7.5789428 0 0 1 -7.48489,2.58825 z"
     fill="#19b9eb"
     id="path115"
     style="stroke-width:0.524191"
     inkscape:export-filename="C:\Users\Christian16\Downloads\Marking Apps\home-page.png"
     inkscape:export-xdpi="512"
     inkscape:export-ydpi="512" />
  <polygon
     points="492.621,518.459 476.984,518.458 469.545,458.145 492.623,458.146 "
     fill="#ffb8b8"
     id="polygon117"
     transform="matrix(0.51383801,0,0,0.5347523,-4.2821707,96.528198)"
     inkscape:export-filename="C:\Users\Christian16\Downloads\Marking Apps\home-page.png"
     inkscape:export-xdpi="512"
     inkscape:export-ydpi="512" />
  <polygon
     points="614.374,511.69 598.913,514.027 582.541,455.503 602.81,452.054 "
     fill="#ffb8b8"
     id="polygon119"
     transform="matrix(0.51383801,0,0,0.5347523,-4.2821707,96.528198)"
     inkscape:export-filename="C:\Users\Christian16\Downloads\Marking Apps\home-page.png"
     inkscape:export-xdpi="512"
     inkscape:export-ydpi="512" />
  <path
     d="m 272.09405,235.14675 -27.78943,-4.92264 -0.98838,2.12022 a 94.367466,98.208421 0 0 0 -9.24731,36.47676 c -0.67099,10.69295 -1.06576,21.98642 -1.0787,33.82516 -0.0201,18.34254 0.87931,35.36245 2.30103,50.84929 l 15.25177,-0.0994 a 360.22834,374.89039 0 0 1 1.7957,-49.25835 c 1.16733,-11.66637 2.79042,-22.56411 4.66703,-32.61989 a 215.61914,224.39529 0 0 0 14.66635,42.84656 c 5.32993,11.73022 16.29294,25.28927 21.62281,37.01949 q 8.19216,-1.0231 16.38432,-2.04616 c -4.30403,-11.84537 -11.98219,-29.14305 -16.28619,-40.98842 -6.15393,-16.93649 -8.93375,-28.4206 -15.08768,-45.3571 a 50.158179,52.199723 0 0 0 0.2048,-9.59131 c -0.28672,-5.3285 -1.35171,-11.72269 -4.46474,-15.9855 z"
     fill="#2f2e41"
     id="path121"
     style="stroke-width:0.524191"
     inkscape:export-filename="C:\Users\Christian16\Downloads\Marking Apps\home-page.png"
     inkscape:export-xdpi="512"
     inkscape:export-ydpi="512" />
  <path
     d="m 276.38723,226.31829 c 1.38778,2.69968 -1.90817,8.29257 -4.29318,8.82846 l -27.48083,-9.24467 13.83715,-41.72811 6.96173,1.31681 11.13408,1.95222 3.94936,3.73595 a 6.943493,7.2261079 0 0 1 1.91508,7.62708 z"
     fill="#19b9eb"
     id="path123"
     style="stroke-width:0.524191"
     inkscape:export-filename="C:\Users\Christian16\Downloads\Marking Apps\home-page.png"
     inkscape:export-xdpi="512"
     inkscape:export-ydpi="512" />
  <path
     d="m 257.46943,210.19195 -7.77414,-5.16312 -10.21399,10.67547 -19.28039,18.66744 a 5.2775069,5.4923126 0 1 0 4.09899,5.95593 l 21.26283,-16.58524 z"
     fill="#ffb8b8"
     id="path125"
     style="stroke-width:0.524191"
     inkscape:export-filename="C:\Users\Christian16\Downloads\Marking Apps\home-page.png"
     inkscape:export-xdpi="512"
     inkscape:export-ydpi="512" />
  <path
     d="m 252.78078,218.24537 -5.63202,-13.06458 0.12332,-0.16227 c 0.0776,-0.10187 7.84441,-10.29199 14.07986,-16.26219 a 6.4917369,6.7559644 0 0 1 5.15453,-1.89495 6.8121817,7.0894519 0 0 1 5.87496,4.7923 7.2817012,7.5780819 0 0 1 -1.69643,8.01554 z"
     fill="#19b9eb"
     id="path127"
     style="stroke-width:0.524191"
     inkscape:export-filename="C:\Users\Christian16\Downloads\Marking Apps\home-page.png"
     inkscape:export-xdpi="512"
     inkscape:export-ydpi="512" />
  <ellipse
     cx="270.29843"
     cy="168.66608"
     fill="#ffb8b8"
     id="circle129"
     rx="12.221981"
     ry="12.719441"
     style="stroke-width:0.524191"
     inkscape:export-filename="C:\Users\Christian16\Downloads\Marking Apps\home-page.png"
     inkscape:export-xdpi="512"
     inkscape:export-ydpi="512" />
  <path
     d="m 280.16898,187.09704 -0.0468,-0.0123 -17.76103,-4.62309 a 4.0600756,4.2253293 0 0 1 -2.49554,-6.2744 l 0.58664,-1.01584 a 6.6592481,6.9302936 0 0 0 0.27254,-6.61961 7.0108469,7.2962032 0 0 0 -4.03088,-3.58321 l -0.0589,-0.0295 -0.37301,-0.24157 a 2.9101421,3.0285911 0 0 1 -1.54052,-1.8526 3.002597,3.124809 0 0 1 0.29392,-2.51991 14.694652,15.292755 0 0 1 6.71293,-6.15901 15.15503,15.771872 0 0 1 11.13875,-0.34823 1.9779783,2.0584862 0 0 1 1.81883,-0.48102 c 9.19809,2.3183 9.9551,8.74351 8.13797,19.0575 l 2.15085,9.02774 a 4.3463194,4.5232238 0 0 1 -3.87729,5.59897 z m -7.40005,-33.17764 -0.001,0.001 z m 0.22173,-0.0565 0.002,5.3e-4 z"
     fill="#2f2e41"
     id="path131"
     style="stroke-width:0.524191"
     inkscape:export-filename="C:\Users\Christian16\Downloads\Marking Apps\home-page.png"
     inkscape:export-xdpi="512"
     inkscape:export-ydpi="512" />
  <path
     d="m 250.80314,382.1363 h -4.58563 l -0.81851,-4.50559 -2.09634,4.50559 h -12.16219 a 2.7339471,2.8452245 0 0 1 -1.55352,-5.18656 l 9.71236,-6.98075 v -4.55502 l 10.21572,0.63456 z"
     fill="#2f2e41"
     id="path133"
     style="stroke-width:0.524191"
     inkscape:export-filename="C:\Users\Christian16\Downloads\Marking Apps\home-page.png"
     inkscape:export-xdpi="512"
     inkscape:export-ydpi="512" />
  <path
     d="m 312.6855,382.1363 h -4.58563 l -0.81851,-4.50559 -2.09634,4.50559 h -12.16219 a 2.7339471,2.8452245 0 0 1 -1.55352,-5.18656 l 9.71236,-6.98075 v -4.55502 l 10.21571,0.63456 z"
     fill="#2f2e41"
     id="path135"
     style="stroke-width:0.524191"
     inkscape:export-filename="C:\Users\Christian16\Downloads\Marking Apps\home-page.png"
     inkscape:export-xdpi="512"
     inkscape:export-ydpi="512" />
  <circle
     cx="105.26575"
     cy="824.46844"
     r="9.9561396"
     transform="rotate(-80.78252)"
     fill="#e6e6e6"
     id="circle69"
     inkscape:export-filename="C:\Users\Christian16\Downloads\Marking Apps\home-page.png"
     inkscape:export-xdpi="512"
     inkscape:export-ydpi="512" />
  <path
     d="m 234.3082,83.494401 h -41.15683 a 5.9241838,5.5444224 0 0 1 -4.67905,-2.12228 v 0 a 5.9982069,5.6137004 0 0 1 -1.12336,-4.81486 104.06724,97.396159 0 0 0 -2.5e-4,-45.2355 5.9996057,5.6150094 0 0 1 1.12348,-4.81463 5.9238793,5.5441375 0 0 1 4.67918,-2.12227 h 41.15683 a 5.9992185,5.6146472 0 0 1 5.904,4.71226 174.43132,163.24964 0 0 1 0,49.685 5.9992185,5.6146472 0 0 1 -5.904,4.71228 z"
     fill="#e6e6e6"
     id="path12-5-4"
     style="stroke-width:0.499311"
     inkscape:export-filename="C:\Users\Christian16\Downloads\Marking Apps\home-page.png"
     inkscape:export-xdpi="512"
     inkscape:export-ydpi="512" />
  <path
     d="m 193.15137,27.283121 a 2.8452301,2.6628407 0 0 0 -2.24747,1.01844 2.9209926,2.7337465 0 0 0 -0.54385,2.34446 107.17716,100.30672 0 0 1 2.5e-4,46.5872 2.9194184,2.7322733 0 0 0 0.54348,2.34398 l 2.6e-4,2.4e-4 a 2.8444869,2.6621451 0 0 0 2.24735,1.01869 h 41.15683 a 2.8812765,2.6965764 0 0 0 2.84324,-2.25437 171.3471,160.36314 0 0 0 0,-48.80429 2.8812765,2.6965764 0 0 0 -2.84324,-2.25436 z"
     fill="#ffffff"
     id="path14-7-3"
     style="stroke-width:0.499311"
     inkscape:export-filename="C:\Users\Christian16\Downloads\Marking Apps\home-page.png"
     inkscape:export-xdpi="512"
     inkscape:export-ydpi="512" />
  <path
     d="M 225.32689,48.464891 H 203.7295 a 3.1000375,2.901314 0 0 1 -3.09665,-2.89815 v -1.13255 a 3.1000375,2.901314 0 0 1 3.09665,-2.89815 h 21.59739 a 3.1000375,2.901314 0 0 1 3.09665,2.89815 v 1.13257 a 3.1000324,2.9013092 0 0 1 -3.09665,2.89813 z"
     fill="#e6e6e6"
     id="path18-8-4"
     style="stroke-width:0.499311"
     inkscape:export-filename="C:\Users\Christian16\Downloads\Marking Apps\home-page.png"
     inkscape:export-xdpi="512"
     inkscape:export-ydpi="512" />
  <path
     d="M 225.32689,62.775411 H 203.7295 a 3.1000324,2.9013092 0 0 1 -3.09665,-2.89815 v -1.13255 a 3.1000324,2.9013092 0 0 1 3.09665,-2.89815 h 21.59739 a 3.1000324,2.9013092 0 0 1 3.09665,2.89815 v 1.13255 a 3.1000324,2.9013092 0 0 1 -3.09665,2.89815 z"
     fill="#e6e6e6"
     id="path20-8-3"
     style="stroke-width:0.499311"
     inkscape:export-filename="C:\Users\Christian16\Downloads\Marking Apps\home-page.png"
     inkscape:export-xdpi="512"
     inkscape:export-ydpi="512" />
  <path
     d="m 225.19972,30.312761 h -21.67739 a 2.3251998,2.1761461 0 0 1 -2.32257,-2.17369 v -3.86435 a 2.3251998,2.1761461 0 0 1 2.32257,-2.17369 h 21.67739 a 2.3251998,2.1761461 0 0 1 2.32258,2.17369 v 3.86435 a 2.3251998,2.1761461 0 0 1 -2.32258,2.17369 z"
     fill="#cccccc"
     id="path28-7-3-14"
     style="fill:#e6e6e6;fill-opacity:1;stroke-width:0.499311"
     inkscape:export-filename="C:\Users\Christian16\Downloads\Marking Apps\home-page.png"
     inkscape:export-xdpi="512"
     inkscape:export-ydpi="512" />
  <rect
     x="395.02454"
     y="611.45361"
     width="77.029671"
     height="2"
     fill="#2f2e41"
     id="rect16-9-8"
     style="fill:#2f2e41;fill-opacity:1;stroke-width:0.27979"
     inkscape:export-filename="C:\Users\Christian16\Downloads\Marking Apps\home-page.png"
     inkscape:export-xdpi="512"
     inkscape:export-ydpi="512" />
  <rect
     x="238.95709"
     y="766.27216"
     width="65.587852"
     height="1.9867795"
     fill="#2f2e41"
     id="rect16-9-8-5"
     style="fill:#2f2e41;fill-opacity:1;stroke-width:0.257321"
     transform="matrix(0.9403024,-0.34034013,0.37649939,0.92641687,0,0)"
     inkscape:export-filename="C:\Users\Christian16\Downloads\Marking Apps\home-page.png"
     inkscape:export-xdpi="512"
     inkscape:export-ydpi="512" />
  <circle
     cx="-343.5491"
     cy="138.95454"
     r="9.9561396"
     transform="rotate(-80.78252)"
     fill="#e6e6e6"
     id="circle69-9"
     inkscape:export-filename="C:\Users\Christian16\Downloads\Marking Apps\home-page.png"
     inkscape:export-xdpi="512"
     inkscape:export-ydpi="512" />
  <path
     d="m 405.74573,220.76846 h -58.69529 a 8.4487002,9.1470245 0 0 1 -6.67297,-3.50127 v 0 a 8.5542674,9.2613173 0 0 1 -1.60207,-7.94341 148.41418,160.68131 0 0 0 -3.6e-4,-74.6282 8.5562621,9.2634769 0 0 1 1.60224,-7.94303 8.4482659,9.1465544 0 0 1 6.67316,-3.50126 h 58.69529 a 8.5557101,9.2628793 0 0 1 8.4199,7.77415 248.76302,269.32444 0 0 1 0,81.96885 8.5557101,9.2628793 0 0 1 -8.4199,7.77417 z"
     fill="#e6e6e6"
     id="path12-7"
     style="stroke-width:0.765886"
     inkscape:export-filename="C:\Users\Christian16\Downloads\Marking Apps\home-page.png"
     inkscape:export-xdpi="512"
     inkscape:export-ydpi="512" />
  <path
     d="m 347.05044,128.03275 a 4.0576891,4.393076 0 0 0 -3.20521,1.6802 4.1657368,4.5100544 0 0 0 -0.77561,3.86781 152.84936,165.48307 0 0 1 3.5e-4,76.8582 4.1634918,4.5076238 0 0 0 0.77509,3.86703 l 3.6e-4,3.9e-4 a 4.0566292,4.3919284 0 0 0 3.20503,1.6806 h 58.69529 a 4.1090963,4.4487322 0 0 0 4.05486,-3.71918 244.36451,264.56237 0 0 0 0,-80.51589 4.1090963,4.4487322 0 0 0 -4.05486,-3.71918 z"
     fill="#ffffff"
     id="path14-4"
     style="stroke-width:0.765886"
     inkscape:export-filename="C:\Users\Christian16\Downloads\Marking Apps\home-page.png"
     inkscape:export-xdpi="512"
     inkscape:export-ydpi="512" />
  <path
     d="m 359.30393,191.45468 v -36.95056 a 1.1093726,1.3417439 0 0 1 1.10808,-1.34018 h 37.67461 a 1.1093751,1.3417469 0 0 1 1.10807,1.34018 v 36.95056 a 1.1094023,1.3417796 0 0 1 -1.10807,1.34018 h -37.67461 a 1.1094244,1.3418064 0 0 1 -1.10808,-1.34018 z"
     fill="#19b9eb"
     id="path25"
     style="fill:#e6e6e6;fill-opacity:1;stroke-width:0.271006"
     inkscape:export-filename="C:\Users\Christian16\Downloads\Marking Apps\home-page.png"
     inkscape:export-xdpi="512"
     inkscape:export-ydpi="512" />
  <path
     d="m 374.95107,183.70079 h 19.23391 a 0.39222124,0.47437663 0 0 0 0.0718,-0.007 l -9.09675,-19.05732 a 0.63692305,0.77033413 0 0 0 -1.10872,0 l -6.10506,12.78894 -0.29248,0.61195 z"
     fill="#ffffff"
     id="path27"
     style="stroke-width:0.271006"
     inkscape:export-filename="C:\Users\Christian16\Downloads\Marking Apps\home-page.png"
     inkscape:export-xdpi="512"
     inkscape:export-ydpi="512" />
  <polygon
     points="118.852,179.813 117.911,178.444 117.44,177.76 116.253,179.813 105.286,198.814 131.934,198.814 "
     opacity="0.2"
     style="isolation:isolate"
     id="polygon29"
     transform="matrix(0.2464243,0,0,0.29804079,349.00617,124.44588)"
     inkscape:export-filename="C:\Users\Christian16\Downloads\Marking Apps\home-page.png"
     inkscape:export-xdpi="512"
     inkscape:export-ydpi="512" />
  <path
     d="m 364.24176,183.70079 h 16.63575 l -3.22368,-5.66333 -0.232,-0.40797 -4.20074,-7.38038 a 0.84999874,1.0280411 0 0 0 -1.26172,-0.0912 0.75937865,0.91843956 0 0 0 -0.0605,0.0912 z"
     fill="#ffffff"
     id="path31"
     style="stroke-width:0.271006"
     inkscape:export-filename="C:\Users\Christian16\Downloads\Marking Apps\home-page.png"
     inkscape:export-xdpi="512"
     inkscape:export-ydpi="512" />
  <circle
     cx="327.43066"
     cy="489.86987"
     fill="#ffffff"
     id="circle33"
     style="stroke-width:0.353847"
     r="0" />
  <rect
     x="393.65427"
     y="155.84427"
     width="3.4825299"
     height="4.2119842"
     fill="#3f3d56"
     id="rect35"
     style="stroke-width:0.271006"
     inkscape:export-filename="C:\Users\Christian16\Downloads\Marking Apps\home-page.png"
     inkscape:export-xdpi="512"
     inkscape:export-ydpi="512" />
  <path
     d="m 392.75578,133.03096 h -30.91494 a 3.3160544,3.5901417 0 0 1 -3.31231,-3.58609 v -6.37528 a 3.3160544,3.5901417 0 0 1 3.31231,-3.58609 h 30.91494 a 3.3160544,3.5901417 0 0 1 3.31232,3.58609 v 6.37528 a 3.3160544,3.5901417 0 0 1 -3.31232,3.58609 z"
     fill="#cccccc"
     id="path28-7-5"
     style="fill:#19b9eb;fill-opacity:1;stroke-width:0.765886"
     inkscape:export-filename="C:\Users\Christian16\Downloads\Marking Apps\home-page.png"
     inkscape:export-xdpi="512"
     inkscape:export-ydpi="512" />
  <circle
     cx="-129.35789"
     cy="931.48322"
     r="9.9561396"
     transform="rotate(-80.78252)"
     fill="#e6e6e6"
     id="circle69-3"
     inkscape:export-filename="C:\Users\Christian16\Downloads\Marking Apps\home-page.png"
     inkscape:export-xdpi="512"
     inkscape:export-ydpi="512" />
</svg>
