<?xml version="1.0" encoding="UTF-8" standalone="no"?>
<svg
   id="b2f46e39-848f-4802-b668-f0d450449910"
   data-name="Layer 1"
   width="995.74509"
   height="657.0383"
   viewBox="0 0 995.74509 657.0383"
   version="1.1"
   sodipodi:docname="page-not-found.svg"
   inkscape:version="1.1 (c68e22c387, 2021-05-23)"
   inkscape:export-filename="C:\Users\Christian16\Downloads\Marking Apps\home-page.png"
   inkscape:export-xdpi="512"
   inkscape:export-ydpi="512"
   xmlns:inkscape="http://www.inkscape.org/namespaces/inkscape"
   xmlns:sodipodi="http://sodipodi.sourceforge.net/DTD/sodipodi-0.dtd"
   xmlns="http://www.w3.org/2000/svg"
   xmlns:svg="http://www.w3.org/2000/svg">
  <defs
     id="defs51" />
  <sodipodi:namedview
     id="namedview49"
     pagecolor="#ffffff"
     bordercolor="#666666"
     borderopacity="1.0"
     inkscape:pageshadow="2"
     inkscape:pageopacity="0.0"
     inkscape:pagecheckerboard="0"
     showgrid="false"
     inkscape:zoom="0.60267381"
     inkscape:cx="504.4188"
     inkscape:cy="364.21028"
     inkscape:window-width="1366"
     inkscape:window-height="745"
     inkscape:window-x="-8"
     inkscape:window-y="-8"
     inkscape:window-maximized="1"
     inkscape:current-layer="b2f46e39-848f-4802-b668-f0d450449910" />
  <path
     d="m 767.75201,180.87683 h -79.74145 a 11.47812,11.47812 0 0 1 -9.06567,-4.39356 v 0 a 11.62154,11.62154 0 0 1 -2.17652,-9.96777 201.63052,201.63052 0 0 0 -4.9e-4,-93.646998 11.62425,11.62425 0 0 1 2.17676,-9.96729 11.47753,11.47753 0 0 1 9.06592,-4.39355 h 79.74145 a 11.6235,11.6235 0 0 1 11.439,9.75537 337.96108,337.96108 0 0 1 0,102.858398 11.6235,11.6235 0 0 1 -11.439,9.7554 z"
     fill="#e6e6e6"
     id="path12"
     inkscape:export-filename="C:\Users\Christian16\Downloads\Marking Apps\home-page.png"
     inkscape:export-xdpi="512"
     inkscape:export-ydpi="512" />
  <path
     d="m 688.01056,64.507662 a 5.51264,5.51264 0 0 0 -4.35449,2.1084 5.65943,5.65943 0 0 0 -1.05371,4.85351 207.656,207.656 0 0 1 4.8e-4,96.445308 5.65638,5.65638 0 0 0 1.053,4.85254 l 4.9e-4,4.9e-4 a 5.5112,5.5112 0 0 0 4.35425,2.10889 h 79.74145 a 5.58248,5.58248 0 0 0 5.50879,-4.667 331.9854,331.9854 0 0 0 0,-101.035158 5.58248,5.58248 0 0 0 -5.50879,-4.667 z"
     fill="#ffffff"
     id="path14"
     inkscape:export-filename="C:\Users\Christian16\Downloads\Marking Apps\home-page.png"
     inkscape:export-xdpi="512"
     inkscape:export-ydpi="512" />
  <path
     d="m 750.10431,70.779662 h -42 a 4.50508,4.50508 0 0 1 -4.5,-4.5 v -8 a 4.50508,4.50508 0 0 1 4.5,-4.5 h 42 a 4.50508,4.50508 0 0 1 4.5,4.5 v 8 a 4.50508,4.50508 0 0 1 -4.5,4.5 z"
     fill="#cccccc"
     id="path28-7"
     style="fill:#19b9eb;fill-opacity:1"
     inkscape:export-filename="C:\Users\Christian16\Downloads\Marking Apps\home-page.png"
     inkscape:export-xdpi="512"
     inkscape:export-ydpi="512" />
  <path
     d="m 868.01912,193.10966 h -58.69529 a 8.4487002,8.5344321 0 0 1 -6.67297,-3.26678 v 0 a 8.5542673,8.6410705 0 0 1 -1.60207,-7.41143 148.41418,149.92019 0 0 0 -3.6e-4,-69.63021 8.5562621,8.6430855 0 0 1 1.60225,-7.41107 8.4482659,8.5339934 0 0 1 6.67315,-3.26678 h 58.69529 a 8.55571,8.6425278 0 0 1 8.41991,7.2535 248.76302,251.28731 0 0 1 0,76.47925 8.55571,8.6425278 0 0 1 -8.41991,7.25352 z"
     fill="#e6e6e6"
     id="path2"
     style="stroke-width:0.739795"
     inkscape:export-filename="C:\Users\Christian16\Downloads\Marking Apps\home-page.png"
     inkscape:export-xdpi="512"
     inkscape:export-ydpi="512" />
  <path
     d="m 809.32383,106.58463 a 4.0576891,4.0988639 0 0 0 -3.20521,1.56767 4.1657368,4.208008 0 0 0 -0.7756,3.60878 152.84936,154.40037 0 0 1 3.5e-4,71.71087 4.1634918,4.2057402 0 0 0 0.77508,3.60805 l 3.6e-4,3.6e-4 a 4.0566292,4.0977932 0 0 0 3.20504,1.56805 h 58.69529 a 4.1090962,4.1507927 0 0 0 4.05485,-3.4701 244.3645,246.84416 0 0 0 0,-75.1236 4.1090962,4.1507927 0 0 0 -4.05485,-3.4701 z"
     fill="#ffffff"
     id="path4"
     style="stroke-width:0.739795"
     inkscape:export-filename="C:\Users\Christian16\Downloads\Marking Apps\home-page.png"
     inkscape:export-xdpi="512"
     inkscape:export-ydpi="512" />
  <path
     d="M 853.55704,110.50457 H 822.6421 a 3.3160544,3.3497035 0 0 1 -3.31232,-3.34593 v -5.94831 a 3.3160544,3.3497035 0 0 1 3.31232,-3.345928 h 30.91494 a 3.3160544,3.3497035 0 0 1 3.31232,3.345928 v 5.94831 a 3.3160544,3.3497035 0 0 1 -3.31232,3.34593 z"
     fill="#cccccc"
     id="path26-4"
     style="fill:#e6e6e6;fill-opacity:1;stroke-width:0.739795"
     inkscape:export-filename="C:\Users\Christian16\Downloads\Marking Apps\home-page.png"
     inkscape:export-xdpi="512"
     inkscape:export-ydpi="512" />
  <path
     d="m 799.63056,314.63107 h -60.44914 a 8.7011519,9.1470245 0 0 1 -6.87236,-3.50127 v 0 a 8.8098734,9.2613173 0 0 1 -1.64994,-7.94341 152.84888,160.68131 0 0 0 -3.7e-4,-74.6282 8.8119278,9.2634769 0 0 1 1.65012,-7.94303 8.7007046,9.1465544 0 0 1 6.87255,-3.50126 h 60.44914 a 8.8113592,9.2628793 0 0 1 8.6715,7.77415 256.1962,269.32444 0 0 1 0,81.96885 8.8113592,9.2628793 0 0 1 -8.6715,7.77417 z"
     fill="#e6e6e6"
     id="path12-5"
     style="stroke-width:0.777244"
     inkscape:export-filename="C:\Users\Christian16\Downloads\Marking Apps\home-page.png"
     inkscape:export-xdpi="512"
     inkscape:export-ydpi="512" />
  <path
     d="m 739.18142,221.89536 a 4.178935,4.393076 0 0 0 -3.30098,1.6802 4.2902113,4.5100544 0 0 0 -0.79878,3.86781 157.41658,165.48307 0 0 1 3.6e-4,76.8582 4.2878992,4.5076238 0 0 0 0.79825,3.86703 l 3.7e-4,3.9e-4 a 4.1778434,4.3919284 0 0 0 3.3008,1.6806 h 60.44914 a 4.2318782,4.4487322 0 0 0 4.17601,-3.71918 251.66625,264.56237 0 0 0 0,-80.51589 4.2318782,4.4487322 0 0 0 -4.17601,-3.71918 z"
     fill="#ffffff"
     id="path14-7"
     style="stroke-width:0.777244"
     inkscape:export-filename="C:\Users\Christian16\Downloads\Marking Apps\home-page.png"
     inkscape:export-xdpi="512"
     inkscape:export-ydpi="512" />
  <path
     d="m 786.25247,226.89357 h -31.83869 a 3.4151399,3.5901417 0 0 1 -3.41129,-3.58609 v -6.37528 a 3.4151399,3.5901417 0 0 1 3.41129,-3.58609 h 31.83869 a 3.4151399,3.5901417 0 0 1 3.41129,3.58609 v 6.37528 a 3.4151399,3.5901417 0 0 1 -3.41129,3.58609 z"
     fill="#cccccc"
     id="path28-7-3"
     style="fill:#19b9eb;fill-opacity:1;stroke-width:0.777244"
     inkscape:export-filename="C:\Users\Christian16\Downloads\Marking Apps\home-page.png"
     inkscape:export-xdpi="512"
     inkscape:export-ydpi="512" />
  <path
     d="m 188.19146,248.92725 h -55.1876 a 7.9437969,7.4516824 0 0 1 -6.27418,-2.85233 v 0 a 8.0430553,7.5447917 0 0 1 -1.50633,-6.47116 139.54479,130.90006 0 0 0 -3.4e-4,-60.79634 8.0449308,7.5465511 0 0 1 1.50649,-6.47084 7.9433886,7.4512993 0 0 1 6.27436,-2.85232 h 55.1876 a 8.0444117,7.5460642 0 0 1 7.91672,6.33326 233.89668,219.40689 0 0 1 0,66.77645 8.0444117,7.5460642 0 0 1 -7.91672,6.33328 z"
     fill="#e6e6e6"
     id="path12-5-2"
     style="stroke-width:0.670302"
     inkscape:export-filename="C:\Users\Christian16\Downloads\Marking Apps\home-page.png"
     inkscape:export-xdpi="512"
     inkscape:export-ydpi="512" />
  <path
     d="m 133.00386,173.3795 a 3.8151973,3.5788476 0 0 0 -3.01366,1.36879 3.916788,3.6741448 0 0 0 -0.72925,3.15094 143.71492,134.81185 0 0 1 3.3e-4,62.61302 3.9146771,3.6721647 0 0 0 0.72876,3.15031 l 3.4e-4,3.2e-4 a 3.8142007,3.5779128 0 0 0 3.0135,1.3691 h 55.18759 a 3.8635323,3.6241883 0 0 0 3.81254,-3.02985 229.76102,215.52743 0 0 0 0,-65.59279 3.8635323,3.6241883 0 0 0 -3.81254,-3.02985 z"
     fill="#ffffff"
     id="path14-7-4"
     style="stroke-width:0.670302"
     inkscape:export-filename="C:\Users\Christian16\Downloads\Marking Apps\home-page.png"
     inkscape:export-xdpi="512"
     inkscape:export-ydpi="512" />
  <path
     d="m 175.97781,177.45133 h -29.06743 a 3.1178835,2.924732 0 0 1 -3.11437,-2.92143 v -5.19366 a 3.1178835,2.924732 0 0 1 3.11437,-2.92144 h 29.06743 a 3.1178835,2.924732 0 0 1 3.11437,2.92144 v 5.19366 a 3.1178835,2.924732 0 0 1 -3.11437,2.92143 z"
     fill="#cccccc"
     id="path28-7-3-1"
     style="fill:#19b9eb;fill-opacity:1;stroke-width:0.670302"
     inkscape:export-filename="C:\Users\Christian16\Downloads\Marking Apps\home-page.png"
     inkscape:export-xdpi="512"
     inkscape:export-ydpi="512" />
  <rect
     x="223.22644"
     y="382.13629"
     width="89.95858"
     height="2"
     fill="#2f2e41"
     id="rect16-9"
     style="fill:#2f2e41;fill-opacity:1;stroke-width:0.30236"
     inkscape:export-filename="C:\Users\Christian16\Downloads\Marking Apps\home-page.png"
     inkscape:export-xdpi="512"
     inkscape:export-ydpi="512" />
  <polygon
     points="365.998,643.436 352.162,628.942 332.398,628.942 332.398,648.706 "
     fill="#ffb8b8"
     id="polygon22"
     transform="translate(189.45268,-33.093771)"
     inkscape:export-filename="C:\Users\Christian16\Downloads\Marking Apps\home-page.png"
     inkscape:export-xdpi="512"
     inkscape:export-ydpi="512" />
  <path
     d="m 528.28285,623.61318 33.236,-10.93289 a 6.46384,6.46384 0 0 0 3.76164,-9.03088 v 0 A 6.46383,6.46383 0 0 0 559.0633,600.091 l -7.5392,0.5094 -2.95462,-1.66282 a 1.71864,1.71864 0 0 0 -2.4321,2.15212 l 2.7247,6.61714 -27.67067,-1.97648 -1.36525,10.922 a 6.48147,6.48147 0 0 0 8.45669,6.96082 z"
     fill="#2f2e41"
     id="path24"
     inkscape:export-filename="C:\Users\Christian16\Downloads\Marking Apps\home-page.png"
     inkscape:export-xdpi="512"
     inkscape:export-ydpi="512" />
  <path
     d="m 430.38411,599.06176 34.91776,9.22356 c -6.43127,-13.34134 -10.39163,-25.14583 -7.90591,-32.94128 l -16.47064,-1.97648 z"
     fill="#ffb8b8"
     id="path26"
     inkscape:export-filename="C:\Users\Christian16\Downloads\Marking Apps\home-page.png"
     inkscape:export-xdpi="512"
     inkscape:export-ydpi="512" />
  <path
     d="m 432.5307,610.77041 36.12873,2.34259 a 6.68859,6.68859 0 0 0 7.09939,-7.21643 v 0 a 6.68861,6.68861 0 0 0 -4.59385,-5.81747 l -7.43422,-2.42311 -2.19407,-2.73754 a 1.77841,1.77841 0 0 0 -3.16605,1.12654 l 0.0597,7.40476 -25.79974,-12.58559 -5.52939,9.9575 a 6.70685,6.70685 0 0 0 5.42952,9.94875 z"
     fill="#2f2e41"
     id="path28"
     inkscape:export-filename="C:\Users\Christian16\Downloads\Marking Apps\home-page.png"
     inkscape:export-xdpi="512"
     inkscape:export-ydpi="512" />
  <circle
     cx="546.87543"
     cy="168.87491"
     r="24.376551"
     fill="#ffb8b8"
     id="circle30"
     inkscape:export-filename="C:\Users\Christian16\Downloads\Marking Apps\home-page.png"
     inkscape:export-xdpi="512"
     inkscape:export-ydpi="512" />
  <path
     d="m 508.19661,200.61157 28.17744,21.30489 c 4.55407,-17.38739 10.0199,-29.80731 17.18138,-32.98823 l -28.17745,-16.49411 z"
     fill="#ffb8b8"
     id="path32"
     inkscape:export-filename="C:\Users\Christian16\Downloads\Marking Apps\home-page.png"
     inkscape:export-xdpi="512"
     inkscape:export-ydpi="512" />
  <polygon
     points="245.895,606.197 269.949,616.506 325.616,485.241 330.084,631.282 354.138,629.908 380.94,401.052 378.879,387.994 287.817,408.268 286.443,481.804 "
     fill="#2f2e41"
     id="polygon34"
     transform="translate(189.45268,-33.093771)"
     inkscape:export-filename="C:\Users\Christian16\Downloads\Marking Apps\home-page.png"
     inkscape:export-xdpi="512"
     inkscape:export-ydpi="512" />
  <path
     d="m 574.5167,161.78167 c 0,0 -15.80686,-14.43236 -20.61765,-8.24706 -4.81079,6.1853 -6.18529,7.5598 -8.93431,7.5598 -2.74902,0 -9.62157,7.5598 -9.62157,7.5598 0,0 -3.43627,-6.87254 -7.5598,-1.37451 -4.12353,5.49803 -4.81079,13.7451 -4.81079,13.7451 0,0 -15.1196,-35.05 11.68334,-41.92254 26.80294,-6.87254 46.04607,14.43235 39.86078,22.67941 z"
     fill="#2f2e41"
     id="path36"
     inkscape:export-filename="C:\Users\Christian16\Downloads\Marking Apps\home-page.png"
     inkscape:export-xdpi="512"
     inkscape:export-ydpi="512" />
  <path
     d="m 471.08484,386.17038 c 13.05785,-5.718 13.44275,-1.23021 32.301,6.18529 23.75157,2.94831 38.85054,3.32629 46.3897,-6.52892 3.08577,-19.56617 5.61482,-38.32822 7.17491,-56.16937 q 0.48447,-5.51518 0.83843,-10.92044 c 2.749,-41.97066 -0.61847,-78.457 -15.91677,-107.81655 l -27.49019,-20.61765 -8.96871,6.50829 c -21.42168,15.5457 -18.0886,39.4278 -20.93376,65.74282 z"
     fill="#19b9eb"
     id="path38"
     inkscape:export-filename="C:\Users\Christian16\Downloads\Marking Apps\home-page.png"
     inkscape:export-xdpi="512"
     inkscape:export-ydpi="512" />
  <polygon
     points="379.222,400.708 377.848,388.338 364.79,388.338 364.79,413.079 "
     fill="#ffb8b8"
     id="polygon40"
     transform="translate(189.45268,-33.093771)"
     inkscape:export-filename="C:\Users\Christian16\Downloads\Marking Apps\home-page.png"
     inkscape:export-xdpi="512"
     inkscape:export-ydpi="512" />
  <path
     d="m 516.15257,255.93558 c 0,0 -40.60272,52.91868 -11.60079,76.97255 29.00193,24.05387 45.22373,39.17352 45.22373,39.17352 0,0 -1.7208,-103.77548 -33.62294,-116.14607 z"
     opacity="0.2"
     id="path42"
     inkscape:export-filename="C:\Users\Christian16\Downloads\Marking Apps\home-page.png"
     inkscape:export-xdpi="512"
     inkscape:export-ydpi="512" />
  <path
     d="m 531.9069,308.85426 25.04353,20.80317 q 0.48447,-5.51518 0.83843,-10.92044 l -16.94765,-75.8592 z"
     opacity="0.2"
     id="path44"
     inkscape:export-filename="C:\Users\Christian16\Downloads\Marking Apps\home-page.png"
     inkscape:export-xdpi="512"
     inkscape:export-ydpi="512" />
  <path
     d="m 550.11915,371.73803 19.93039,-15.80686 -26.11568,-65.97647 -0.59285,-68.77093 a 15.65921,15.65921 0 0 0 -10.41264,-14.61934 v 0 a 15.6592,15.6592 0 0 0 -20.90375,14.54273 l -1.079,79.84363 z"
     fill="#19b9eb"
     id="path46"
     inkscape:export-filename="C:\Users\Christian16\Downloads\Marking Apps\home-page.png"
     inkscape:export-xdpi="512"
     inkscape:export-ydpi="512" />
  <rect
     x="217.42993"
     y="354.26746"
     width="26.418669"
     height="1.2306628"
     fill="#ffffff"
     id="rect93"
     style="stroke-width:0.524191"
     inkscape:export-filename="C:\Users\Christian16\Downloads\Marking Apps\home-page.png"
     inkscape:export-xdpi="512"
     inkscape:export-ydpi="512" />
  <polygon
     points="479.182,268.426 535.565,270.727 542.469,232.754 494.14,217.796 "
     fill="#ffb8b8"
     id="polygon111"
     transform="matrix(0.51383801,0,0,0.5347523,-4.2821707,96.528198)"
     inkscape:export-filename="C:\Users\Christian16\Downloads\Marking Apps\home-page.png"
     inkscape:export-xdpi="512"
     inkscape:export-ydpi="512" />
  <path
     d="m 252.88978,196.08899 0.28037,-9.59322 -14.04136,-3.66356 -25.2802,-7.67544 a 5.2774966,5.4923019 0 1 0 -2.81668,6.714 l 24.57683,10.5138 z"
     fill="#ffb8b8"
     id="path113"
     style="stroke-width:0.524191"
     inkscape:export-filename="C:\Users\Christian16\Downloads\Marking Apps\home-page.png"
     inkscape:export-xdpi="512"
     inkscape:export-ydpi="512" />
  <path
     d="m 243.84181,196.02178 7.89888,-11.72467 0.19711,0.0273 c 0.12396,0.017 12.51117,1.74169 20.63191,4.25841 a 6.4915776,6.7557986 0 0 1 4.20358,3.63729 6.8084924,7.0856124 0 0 1 -0.94687,7.70569 7.2825285,7.5789428 0 0 1 -7.48489,2.58825 z"
     fill="#19b9eb"
     id="path115"
     style="stroke-width:0.524191"
     inkscape:export-filename="C:\Users\Christian16\Downloads\Marking Apps\home-page.png"
     inkscape:export-xdpi="512"
     inkscape:export-ydpi="512" />
  <polygon
     points="492.621,518.459 476.984,518.458 469.545,458.145 492.623,458.146 "
     fill="#ffb8b8"
     id="polygon117"
     transform="matrix(0.51383801,0,0,0.5347523,-4.2821707,96.528198)"
     inkscape:export-filename="C:\Users\Christian16\Downloads\Marking Apps\home-page.png"
     inkscape:export-xdpi="512"
     inkscape:export-ydpi="512" />
  <polygon
     points="614.374,511.69 598.913,514.027 582.541,455.503 602.81,452.054 "
     fill="#ffb8b8"
     id="polygon119"
     transform="matrix(0.51383801,0,0,0.5347523,-4.2821707,96.528198)"
     inkscape:export-filename="C:\Users\Christian16\Downloads\Marking Apps\home-page.png"
     inkscape:export-xdpi="512"
     inkscape:export-ydpi="512" />
  <path
     d="m 272.09405,235.14675 -27.78943,-4.92264 -0.98838,2.12022 a 94.367466,98.208421 0 0 0 -9.24731,36.47676 c -0.67099,10.69295 -1.06576,21.98642 -1.0787,33.82516 -0.0201,18.34254 0.87931,35.36245 2.30103,50.84929 l 15.25177,-0.0994 a 360.22834,374.89039 0 0 1 1.7957,-49.25835 c 1.16733,-11.66637 2.79042,-22.56411 4.66703,-32.61989 a 215.61914,224.39529 0 0 0 14.66635,42.84656 c 5.32993,11.73022 16.29294,25.28927 21.62281,37.01949 q 8.19216,-1.0231 16.38432,-2.04616 c -4.30403,-11.84537 -11.98219,-29.14305 -16.28619,-40.98842 -6.15393,-16.93649 -8.93375,-28.4206 -15.08768,-45.3571 a 50.158179,52.199723 0 0 0 0.2048,-9.59131 c -0.28672,-5.3285 -1.35171,-11.72269 -4.46474,-15.9855 z"
     fill="#2f2e41"
     id="path121"
     style="stroke-width:0.524191"
     inkscape:export-filename="C:\Users\Christian16\Downloads\Marking Apps\home-page.png"
     inkscape:export-xdpi="512"
     inkscape:export-ydpi="512" />
  <path
     d="m 276.38723,226.31829 c 1.38778,2.69968 -1.90817,8.29257 -4.29318,8.82846 l -27.48083,-9.24467 13.83715,-41.72811 6.96173,1.31681 11.13408,1.95222 3.94936,3.73595 a 6.943493,7.2261079 0 0 1 1.91508,7.62708 z"
     fill="#19b9eb"
     id="path123"
     style="stroke-width:0.524191"
     inkscape:export-filename="C:\Users\Christian16\Downloads\Marking Apps\home-page.png"
     inkscape:export-xdpi="512"
     inkscape:export-ydpi="512" />
  <path
     d="m 257.46943,210.19195 -7.77414,-5.16312 -10.21399,10.67547 -19.28039,18.66744 a 5.2775069,5.4923126 0 1 0 4.09899,5.95593 l 21.26283,-16.58524 z"
     fill="#ffb8b8"
     id="path125"
     style="stroke-width:0.524191"
     inkscape:export-filename="C:\Users\Christian16\Downloads\Marking Apps\home-page.png"
     inkscape:export-xdpi="512"
     inkscape:export-ydpi="512" />
  <path
     d="m 252.78078,218.24537 -5.63202,-13.06458 0.12332,-0.16227 c 0.0776,-0.10187 7.84441,-10.29199 14.07986,-16.26219 a 6.4917369,6.7559644 0 0 1 5.15453,-1.89495 6.8121817,7.0894519 0 0 1 5.87496,4.7923 7.2817012,7.5780819 0 0 1 -1.69643,8.01554 z"
     fill="#19b9eb"
     id="path127"
     style="stroke-width:0.524191"
     inkscape:export-filename="C:\Users\Christian16\Downloads\Marking Apps\home-page.png"
     inkscape:export-xdpi="512"
     inkscape:export-ydpi="512" />
  <ellipse
     cx="270.29843"
     cy="168.66608"
     fill="#ffb8b8"
     id="circle129"
     rx="12.221981"
     ry="12.719441"
     style="stroke-width:0.524191"
     inkscape:export-filename="C:\Users\Christian16\Downloads\Marking Apps\home-page.png"
     inkscape:export-xdpi="512"
     inkscape:export-ydpi="512" />
  <path
     d="m 280.16898,187.09704 -0.0468,-0.0123 -17.76103,-4.62309 a 4.0600756,4.2253293 0 0 1 -2.49554,-6.2744 l 0.58664,-1.01584 a 6.6592481,6.9302936 0 0 0 0.27254,-6.61961 7.0108469,7.2962032 0 0 0 -4.03088,-3.58321 l -0.0589,-0.0295 -0.37301,-0.24157 a 2.9101421,3.0285911 0 0 1 -1.54052,-1.8526 3.002597,3.124809 0 0 1 0.29392,-2.51991 14.694652,15.292755 0 0 1 6.71293,-6.15901 15.15503,15.771872 0 0 1 11.13875,-0.34823 1.9779783,2.0584862 0 0 1 1.81883,-0.48102 c 9.19809,2.3183 9.9551,8.74351 8.13797,19.0575 l 2.15085,9.02774 a 4.3463194,4.5232238 0 0 1 -3.87729,5.59897 z m -7.40005,-33.17764 -0.001,0.001 z m 0.22173,-0.0565 0.002,5.3e-4 z"
     fill="#2f2e41"
     id="path131"
     style="stroke-width:0.524191"
     inkscape:export-filename="C:\Users\Christian16\Downloads\Marking Apps\home-page.png"
     inkscape:export-xdpi="512"
     inkscape:export-ydpi="512" />
  <path
     d="m 250.80314,382.1363 h -4.58563 l -0.81851,-4.50559 -2.09634,4.50559 h -12.16219 a 2.7339471,2.8452245 0 0 1 -1.55352,-5.18656 l 9.71236,-6.98075 v -4.55502 l 10.21572,0.63456 z"
     fill="#2f2e41"
     id="path133"
     style="stroke-width:0.524191"
     inkscape:export-filename="C:\Users\Christian16\Downloads\Marking Apps\home-page.png"
     inkscape:export-xdpi="512"
     inkscape:export-ydpi="512" />
  <path
     d="m 312.6855,382.1363 h -4.58563 l -0.81851,-4.50559 -2.09634,4.50559 h -12.16219 a 2.7339471,2.8452245 0 0 1 -1.55352,-5.18656 l 9.71236,-6.98075 v -4.55502 l 10.21571,0.63456 z"
     fill="#2f2e41"
     id="path135"
     style="stroke-width:0.524191"
     inkscape:export-filename="C:\Users\Christian16\Downloads\Marking Apps\home-page.png"
     inkscape:export-xdpi="512"
     inkscape:export-ydpi="512" />
  <circle
     cx="105.26575"
     cy="824.46844"
     r="9.9561396"
     transform="rotate(-80.78252)"
     fill="#e6e6e6"
     id="circle69"
     inkscape:export-filename="C:\Users\Christian16\Downloads\Marking Apps\home-page.png"
     inkscape:export-xdpi="512"
     inkscape:export-ydpi="512" />
  <path
     d="m 234.3082,83.494401 h -41.15683 a 5.9241838,5.5444224 0 0 1 -4.67905,-2.12228 v 0 a 5.9982069,5.6137004 0 0 1 -1.12336,-4.81486 104.06724,97.396159 0 0 0 -2.5e-4,-45.2355 5.9996057,5.6150094 0 0 1 1.12348,-4.81463 5.9238793,5.5441375 0 0 1 4.67918,-2.12227 h 41.15683 a 5.9992185,5.6146472 0 0 1 5.904,4.71226 174.43132,163.24964 0 0 1 0,49.685 5.9992185,5.6146472 0 0 1 -5.904,4.71228 z"
     fill="#e6e6e6"
     id="path12-5-4"
     style="stroke-width:0.499311"
     inkscape:export-filename="C:\Users\Christian16\Downloads\Marking Apps\home-page.png"
     inkscape:export-xdpi="512"
     inkscape:export-ydpi="512" />
  <path
     d="m 193.15137,27.283121 a 2.8452301,2.6628407 0 0 0 -2.24747,1.01844 2.9209926,2.7337465 0 0 0 -0.54385,2.34446 107.17716,100.30672 0 0 1 2.5e-4,46.5872 2.9194184,2.7322733 0 0 0 0.54348,2.34398 l 2.6e-4,2.4e-4 a 2.8444869,2.6621451 0 0 0 2.24735,1.01869 h 41.15683 a 2.8812765,2.6965764 0 0 0 2.84324,-2.25437 171.3471,160.36314 0 0 0 0,-48.80429 2.8812765,2.6965764 0 0 0 -2.84324,-2.25436 z"
     fill="#ffffff"
     id="path14-7-3"
     style="stroke-width:0.499311"
     inkscape:export-filename="C:\Users\Christian16\Downloads\Marking Apps\home-page.png"
     inkscape:export-xdpi="512"
     inkscape:export-ydpi="512" />
  <path
     d="m 225.19972,30.312761 h -21.67739 a 2.3251998,2.1761461 0 0 1 -2.32257,-2.17369 v -3.86435 a 2.3251998,2.1761461 0 0 1 2.32257,-2.17369 h 21.67739 a 2.3251998,2.1761461 0 0 1 2.32258,2.17369 v 3.86435 a 2.3251998,2.1761461 0 0 1 -2.32258,2.17369 z"
     fill="#cccccc"
     id="path28-7-3-14"
     style="fill:#e6e6e6;fill-opacity:1;stroke-width:0.499311"
     inkscape:export-filename="C:\Users\Christian16\Downloads\Marking Apps\home-page.png"
     inkscape:export-xdpi="512"
     inkscape:export-ydpi="512" />
  <rect
     x="395.02454"
     y="611.45361"
     width="77.029671"
     height="2"
     fill="#2f2e41"
     id="rect16-9-8"
     style="fill:#2f2e41;fill-opacity:1;stroke-width:0.27979"
     inkscape:export-filename="C:\Users\Christian16\Downloads\Marking Apps\home-page.png"
     inkscape:export-xdpi="512"
     inkscape:export-ydpi="512" />
  <rect
     x="238.95709"
     y="766.27216"
     width="65.587852"
     height="1.9867795"
     fill="#2f2e41"
     id="rect16-9-8-5"
     style="fill:#2f2e41;fill-opacity:1;stroke-width:0.257321"
     transform="matrix(0.9403024,-0.34034013,0.37649939,0.92641687,0,0)"
     inkscape:export-filename="C:\Users\Christian16\Downloads\Marking Apps\home-page.png"
     inkscape:export-xdpi="512"
     inkscape:export-ydpi="512" />
  <circle
     cx="-343.5491"
     cy="138.95454"
     r="9.9561396"
     transform="rotate(-80.78252)"
     fill="#e6e6e6"
     id="circle69-9"
     inkscape:export-filename="C:\Users\Christian16\Downloads\Marking Apps\home-page.png"
     inkscape:export-xdpi="512"
     inkscape:export-ydpi="512" />
  <path
     d="m 405.74573,220.76846 h -58.69529 a 8.4487002,9.1470245 0 0 1 -6.67297,-3.50127 v 0 a 8.5542674,9.2613173 0 0 1 -1.60207,-7.94341 148.41418,160.68131 0 0 0 -3.6e-4,-74.6282 8.5562621,9.2634769 0 0 1 1.60224,-7.94303 8.4482659,9.1465544 0 0 1 6.67316,-3.50126 h 58.69529 a 8.5557101,9.2628793 0 0 1 8.4199,7.77415 248.76302,269.32444 0 0 1 0,81.96885 8.5557101,9.2628793 0 0 1 -8.4199,7.77417 z"
     fill="#e6e6e6"
     id="path12-7"
     style="stroke-width:0.765886"
     inkscape:export-filename="C:\Users\Christian16\Downloads\Marking Apps\home-page.png"
     inkscape:export-xdpi="512"
     inkscape:export-ydpi="512" />
  <path
     d="m 347.05044,128.03275 a 4.0576891,4.393076 0 0 0 -3.20521,1.6802 4.1657368,4.5100544 0 0 0 -0.77561,3.86781 152.84936,165.48307 0 0 1 3.5e-4,76.8582 4.1634918,4.5076238 0 0 0 0.77509,3.86703 l 3.6e-4,3.9e-4 a 4.0566292,4.3919284 0 0 0 3.20503,1.6806 h 58.69529 a 4.1090963,4.4487322 0 0 0 4.05486,-3.71918 244.36451,264.56237 0 0 0 0,-80.51589 4.1090963,4.4487322 0 0 0 -4.05486,-3.71918 z"
     fill="#ffffff"
     id="path14-4"
     style="stroke-width:0.765886"
     inkscape:export-filename="C:\Users\Christian16\Downloads\Marking Apps\home-page.png"
     inkscape:export-xdpi="512"
     inkscape:export-ydpi="512" />
  <circle
     cx="327.43066"
     cy="489.86987"
     fill="#ffffff"
     id="circle33"
     style="stroke-width:0.353847"
     r="0" />
  <path
     d="m 392.75578,133.03096 h -30.91494 a 3.3160544,3.5901417 0 0 1 -3.31231,-3.58609 v -6.37528 a 3.3160544,3.5901417 0 0 1 3.31231,-3.58609 h 30.91494 a 3.3160544,3.5901417 0 0 1 3.31232,3.58609 v 6.37528 a 3.3160544,3.5901417 0 0 1 -3.31232,3.58609 z"
     fill="#cccccc"
     id="path28-7-5"
     style="fill:#19b9eb;fill-opacity:1;stroke-width:0.765886"
     inkscape:export-filename="C:\Users\Christian16\Downloads\Marking Apps\home-page.png"
     inkscape:export-xdpi="512"
     inkscape:export-ydpi="512" />
  <circle
     cx="-129.35789"
     cy="931.48322"
     transform="rotate(-80.78252)"
     fill="#e6e6e6"
     id="circle69-3"
     inkscape:export-filename="C:\Users\Christian16\Downloads\Marking Apps\home-page.png"
     inkscape:export-xdpi="512"
     inkscape:export-ydpi="512"
     r="9.9561396" />
  <ellipse
     cx="846.177"
     cy="168.09062"
     fill="#6c63ff"
     id="circle2-2"
     rx="4.675806"
     ry="4.0988727"
     style="fill:#19b9eb;fill-opacity:1;stroke-width:0.0951704" />
  <ellipse
     cx="844.14404"
     cy="154.01189"
     fill="#f2f2f2"
     id="circle18"
     rx="2.4395511"
     ry="2.1385424"
     style="fill:#19b9eb;fill-opacity:1;stroke-width:0.0951704" />
  <path
     d="m 845.67613,125.32005 c -7.30766,0.0456 -13.29108,5.25098 -13.39489,11.65651 -10e-4,0.059 -10e-4,0.47499 -10e-4,1.01884 a 3.430393,3.0071275 0 0 0 3.42999,3.00697 h 10e-6 a 3.4325042,3.0089782 0 0 0 3.43175,-3.0116 c -3e-4,-0.36997 -5e-4,-0.62599 -5e-4,-0.64172 a 6.505507,5.7028131 0 1 1 10.01438,4.80099 h 6.7e-4 c 0,0 -4.88197,2.75515 -6.37036,6.53463 l 6.7e-4,2.8e-4 a 9.5553038,8.3763045 0 0 0 -0.39374,2.38519 c 0,0.33191 0.0223,3.23646 0.0653,5.59385 a 3.5359758,3.0996827 0 0 0 3.53634,3.04937 v 0 a 3.5369302,3.1005195 0 0 0 3.53672,-3.11958 c -0.0149,-2.15899 -0.0231,-4.67293 -0.0231,-4.85539 0,-2.32074 2.55394,-4.63299 4.65179,-6.14093 2.41575,-1.73645 4.15414,-4.10276 4.85238,-6.77199 a 8.8191601,7.7309915 0 0 0 0.25404,-1.67818 13.493766,11.828813 0 0 0 -13.59124,-11.8285 z"
     fill="#6c63ff"
     id="path24-2"
     style="fill:#19b9eb;fill-opacity:1;stroke-width:0.0951704" />
  <path
     d="m 836.67838,139.58008 v 0 a 3.4304154,3.0071471 0 0 1 -3.43002,-3.0069 c -5e-5,-0.54393 4e-4,-0.95974 10e-4,-1.01892 a 13.367443,11.718076 0 0 1 1.56121,-5.33817 13.397528,11.744448 0 0 0 -2.57768,6.76391 c -10e-4,0.059 -10e-4,0.47499 -10e-4,1.01884 a 3.4304154,3.0071471 0 0 0 3.43002,3.00697 v 0 a 3.4329373,3.0093578 0 0 0 3.30232,-2.19122 3.4176555,2.9959616 0 0 1 -2.28584,0.76549 z"
     fill="#3f3d56"
     id="path58"
     style="fill:#19b9eb;fill-opacity:1;stroke-width:0.0951704" />
  <path
     d="m 845.90864,131.65601 a 6.5058607,5.7031229 0 0 1 5.65765,7.96717 6.5051846,5.7025302 0 1 0 -10.91962,-5.96873 6.4923295,5.6912609 0 0 1 5.26197,-1.99844 z"
     fill="#3f3d56"
     id="path60"
     style="fill:#19b9eb;fill-opacity:1;stroke-width:0.0951704" />
  <path
     d="m 846.96393,158.2924 v 0 a 3.5360093,3.0997121 0 0 1 -3.53633,-3.04945 c -0.0431,-2.35746 -0.0653,-5.26193 -0.0653,-5.59385 a 9.5553038,8.3763045 0 0 1 0.39374,-2.38518 l -10e-4,-2.9e-4 a 9.66357,8.4712123 0 0 1 0.55847,-1.13172 11.186099,9.8058812 0 0 0 -1.57495,2.55739 l 10e-4,2.8e-4 a 9.5553038,8.3763045 0 0 0 -0.39374,2.38519 c 0,0.33192 0.0223,3.23646 0.0653,5.59392 a 3.5360093,3.0997121 0 0 0 3.53634,3.04937 v 0 a 3.5376408,3.1011423 0 0 0 3.39523,-2.23201 3.5231234,3.0884162 0 0 1 -2.37875,0.80635 z"
     fill="#3f3d56"
     id="path62"
     style="fill:#19b9eb;fill-opacity:1;stroke-width:0.0951704" />
  <path
     d="m 845.14683,171.18973 a 4.6751709,4.0983161 0 0 1 -1.73516,-6.37015 4.6755165,4.098619 0 1 0 6.36,5.92233 4.6726744,4.0961276 0 0 1 -4.62484,0.44782 z"
     fill="#3f3d56"
     id="path90-2"
     style="fill:#19b9eb;fill-opacity:1;stroke-width:0.0951704" />
  <ellipse
     cx="378.84705"
     cy="195.05367"
     fill="#6c63ff"
     id="circle2-2-7"
     rx="5.8237376"
     ry="4.2438555"
     style="fill:#e6e6e6;fill-opacity:1;stroke-width:0.108074" />
  <ellipse
     cx="376.315"
     cy="180.47694"
     fill="#f2f2f2"
     id="circle18-6"
     rx="3.0384722"
     ry="2.2141857"
     style="fill:#e6e6e6;fill-opacity:1;stroke-width:0.108074" />
  <path
     d="m 378.22321,150.77026 c -9.10172,0.0472 -16.5541,5.43671 -16.6834,12.0688 -0.002,0.0611 -0.002,0.49179 -0.002,1.05489 a 4.2725702,3.1134938 0 0 0 4.27208,3.11334 v 0 a 4.2751997,3.1154101 0 0 0 4.27427,-3.11813 c -3.8e-4,-0.38306 -6.3e-4,-0.64814 -6.3e-4,-0.66442 a 8.1026386,5.9045296 0 1 1 12.47296,4.9708 h 8.4e-4 c 0,0 -6.08053,2.85261 -7.93432,6.76577 l 8.4e-4,2.9e-4 a 11.901174,8.6725862 0 0 0 -0.49041,2.46956 c 0,0.34365 0.0277,3.35093 0.0814,5.79171 a 4.4040739,3.2093228 0 0 0 4.40453,3.15723 v 0 a 4.4052626,3.2101892 0 0 0 4.405,-3.22992 c -0.0186,-2.23536 -0.0287,-4.83823 -0.0287,-5.02714 0,-2.40282 3.18094,-4.79686 5.79382,-6.35815 3.00883,-1.79786 5.17401,-4.24787 6.04367,-7.0115 a 10.984304,8.0044475 0 0 0 0.31641,-1.73755 16.806547,12.247215 0 0 0 -16.92795,-12.24689 z"
     fill="#6c63ff"
     id="path24-2-6"
     style="fill:#e6e6e6;fill-opacity:1;stroke-width:0.108074" />
  <path
     d="m 367.01647,165.53468 v 0 a 4.2725981,3.1135142 0 0 1 -4.2721,-3.11326 c -7e-5,-0.56317 5.1e-4,-0.99368 0.002,-1.05495 a 16.649211,12.132561 0 0 1 1.94448,-5.52699 16.686681,12.159866 0 0 0 -3.2105,7.00315 c -0.002,0.0611 -0.002,0.49179 -0.002,1.05488 a 4.2725981,3.1135142 0 0 0 4.2721,3.11333 v 0 a 4.275739,3.1158031 0 0 0 4.11307,-2.26872 4.2567055,3.101933 0 0 1 -2.84704,0.79256 z"
     fill="#3f3d56"
     id="path58-8"
     style="fill:#e6e6e6;fill-opacity:1;stroke-width:0.108074" />
  <path
     d="m 378.51281,157.33032 a 8.1030791,5.9048503 0 0 1 7.04662,8.24898 8.1022372,5.9042366 0 1 0 -13.60043,-6.17985 8.0862259,5.8925687 0 0 1 6.55381,-2.06913 z"
     fill="#3f3d56"
     id="path60-6"
     style="fill:#e6e6e6;fill-opacity:1;stroke-width:0.108074" />
  <path
     d="m 379.82718,184.90888 v 0 a 4.4041157,3.2093532 0 0 1 -4.40453,-3.1573 c -0.0536,-2.44086 -0.0814,-5.44806 -0.0814,-5.79173 a 11.901174,8.6725862 0 0 1 0.49039,-2.46954 l -0.002,-2.9e-4 a 12.03602,8.7708509 0 0 1 0.69558,-1.17177 13.932337,10.152729 0 0 0 -1.96161,2.64786 l 0.002,2.9e-4 a 11.901174,8.6725862 0 0 0 -0.49041,2.46955 c 0,0.34366 0.0277,3.35095 0.0814,5.79179 a 4.4041157,3.2093532 0 0 0 4.40453,3.15723 v 0 a 4.4061476,3.2108341 0 0 0 4.22877,-2.31096 4.3880661,3.1976578 0 0 1 -2.96276,0.83487 z"
     fill="#3f3d56"
     id="path62-6"
     style="fill:#e6e6e6;fill-opacity:1;stroke-width:0.108074" />
  <path
     d="m 377.56396,198.26241 a 5.8229467,4.2432793 0 0 1 -2.16114,-6.59547 5.8233772,4.2435929 0 1 0 7.9214,6.13181 5.8198373,4.2410134 0 0 1 -5.76026,0.46366 z"
     fill="#3f3d56"
     id="path90-2-8"
     style="fill:#e6e6e6;fill-opacity:1;stroke-width:0.108074" />
  <ellipse
     cx="216.02831"
     cy="65.72747"
     fill="#6c63ff"
     id="circle2-2-70"
     rx="3.5278831"
     ry="2.5040588"
     style="fill:#19b9eb;fill-opacity:1;stroke-width:0.0646131" />
  <ellipse
     cx="214.49446"
     cy="57.126572"
     fill="#f2f2f2"
     id="circle18-0"
     rx="1.8406347"
     ry="1.3064655"
     style="fill:#19b9eb;fill-opacity:1;stroke-width:0.0646131" />
  <path
     d="m 215.65038,39.598339 c -5.51361,0.02784 -10.02808,3.207896 -10.10641,7.121122 -7.5e-4,0.03606 -7.5e-4,0.290183 -7.5e-4,0.62243 a 2.5882222,1.8370964 0 0 0 2.58792,1.836996 h 1e-5 a 2.5898151,1.838227 0 0 0 2.58924,-1.839827 c -2.2e-4,-0.226019 -3.8e-4,-0.382428 -3.8e-4,-0.392037 a 4.9083875,3.4839286 0 1 1 7.55583,2.932991 h 5e-4 c 0,0 -3.68343,1.683161 -4.80642,3.992101 l 5.1e-4,1.71e-4 a 7.2094509,5.117202 0 0 0 -0.29708,1.457143 c 0,0.202769 0.0168,1.977198 0.0493,3.417358 a 2.6678842,1.8936397 0 0 0 2.66816,1.862906 v 0 a 2.6686043,1.8941508 0 0 0 2.66845,-1.905791 c -0.0113,-1.318965 -0.0174,-2.854766 -0.0174,-2.966228 0,-1.417771 1.92694,-2.830362 3.50976,-3.751582 1.82268,-1.060825 3.13429,-2.506429 3.66111,-4.137096 a 6.6540325,4.7229712 0 0 0 0.19167,-1.02523 10.18101,7.2263878 0 0 0 -10.25455,-7.226195 z"
     fill="#6c63ff"
     id="path24-2-3"
     style="fill:#19b9eb;fill-opacity:1;stroke-width:0.0646131" />
  <path
     d="m 208.8616,48.30999 v 0 a 2.5882392,1.8371084 0 0 1 -2.58794,-1.836958 c -3e-5,-0.332293 3.1e-4,-0.586314 7.6e-4,-0.622468 a 10.0857,7.158737 0 0 1 1.17793,-3.261165 10.108399,7.1748481 0 0 0 -1.94486,4.132164 c -7.5e-4,0.03606 -7.5e-4,0.290183 -7.5e-4,0.622429 a 2.5882392,1.8371084 0 0 0 2.58794,1.836997 v 0 a 2.5901419,1.8384589 0 0 0 2.49159,-1.338647 2.5786118,1.830275 0 0 1 -1.72466,0.467648 z"
     fill="#3f3d56"
     id="path58-9"
     style="fill:#19b9eb;fill-opacity:1;stroke-width:0.0646131" />
  <path
     d="m 215.82581,43.469068 a 4.9086543,3.4841179 0 0 1 4.26868,4.867257 4.9081442,3.4837557 0 1 0 -8.23882,-3.646385 4.8984451,3.4768712 0 0 1 3.97014,-1.220872 z"
     fill="#3f3d56"
     id="path60-8"
     style="fill:#19b9eb;fill-opacity:1;stroke-width:0.0646131" />
  <path
     d="m 216.62202,59.741609 v 0 a 2.6679095,1.8936576 0 0 1 -2.66815,-1.862944 c -0.0325,-1.440206 -0.0493,-3.214589 -0.0493,-3.417366 a 7.2094509,5.117202 0 0 1 0.29708,-1.457143 l -7.5e-4,-1.7e-4 a 7.2911375,5.1751825 0 0 1 0.42136,-0.691394 8.4398815,5.9905504 0 0 0 -1.1883,1.562354 l 7.6e-4,1.71e-4 a 7.2094509,5.117202 0 0 0 -0.29708,1.457142 c 0,0.20277 0.0168,1.977199 0.0493,3.417405 a 2.6679095,1.8936576 0 0 0 2.66816,1.862906 v 0 a 2.6691404,1.8945313 0 0 0 2.56169,-1.363572 2.6581871,1.8867568 0 0 1 -1.79476,0.492611 z"
     fill="#3f3d56"
     id="path62-5"
     style="fill:#19b9eb;fill-opacity:1;stroke-width:0.0646131" />
  <path
     d="m 215.25103,67.620772 a 3.5274038,2.5037188 0 0 1 -1.30918,-3.891613 3.5276646,2.5039039 0 1 0 4.79861,3.618033 3.5255202,2.5023819 0 0 1 -3.48943,0.27358 z"
     fill="#3f3d56"
     id="path90-2-5"
     style="fill:#19b9eb;fill-opacity:1;stroke-width:0.0646131" />
  <ellipse
     cx="732.27209"
     cy="147.56958"
     fill="#6c63ff"
     id="circle2-2-3"
     rx="5.823741"
     ry="5.2587376"
     style="fill:#e6e6e6;fill-opacity:1;stroke-width:0.120305" />
  <ellipse
     cx="729.73999"
     cy="129.50693"
     fill="#f2f2f2"
     id="circle18-5"
     rx="3.0384738"
     ry="2.7436891"
     style="fill:#e6e6e6;fill-opacity:1;stroke-width:0.120305" />
  <path
     d="m 731.64824,92.696121 c -9.10173,0.0585 -16.55412,6.73686 -16.68342,14.954969 -0.002,0.0756 -0.002,0.60939 -0.002,1.30714 a 4.2725725,3.8580592 0 0 0 4.27208,3.85786 h 10e-6 a 4.275202,3.8604336 0 0 0 4.27427,-3.8638 c -3.9e-4,-0.47466 -6.3e-4,-0.80313 -6.3e-4,-0.82331 a 8.1026431,7.3165472 0 1 1 12.47297,6.15953 h 8.3e-4 c 0,0 -6.08053,3.53479 -7.93432,8.38375 l 8.4e-4,3.6e-4 a 11.901181,10.746561 0 0 0 -0.49041,3.06013 c 0,0.42583 0.0277,4.15228 0.0814,7.17675 a 4.4040763,3.9768049 0 0 0 4.40453,3.91225 h 10e-6 a 4.4052651,3.9778784 0 0 0 4.40501,-4.00232 c -0.0186,-2.76993 -0.0287,-5.99525 -0.0287,-6.22933 0,-2.97745 3.18094,-5.944 5.79382,-7.87865 3.00883,-2.22781 5.17401,-5.26372 6.04367,-8.68826 a 10.98431,9.9186425 0 0 0 0.31641,-2.15306 16.806557,15.176031 0 0 0 -16.92797,-15.175629 z"
     fill="#6c63ff"
     id="path24-2-5"
     style="fill:#e6e6e6;fill-opacity:1;stroke-width:0.120305" />
  <path
     d="m 720.44148,110.99133 v 0 a 4.2726004,3.8580844 0 0 1 -4.2721,-3.85777 c -7e-5,-0.69784 5e-4,-1.23131 0.002,-1.30724 a 16.64922,15.033959 0 0 1 1.94449,-6.848719 16.686691,15.067793 0 0 0 -3.21051,8.677899 c -0.002,0.0757 -0.002,0.6094 -0.002,1.30715 a 4.2726004,3.8580844 0 0 0 4.27211,3.85785 v 0 a 4.2757413,3.8609206 0 0 0 4.11306,-2.81127 4.2567079,3.8437337 0 0 1 -2.84703,0.9821 z"
     fill="#3f3d56"
     id="path58-5"
     style="fill:#e6e6e6;fill-opacity:1;stroke-width:0.120305" />
  <path
     d="m 731.93783,100.82497 a 8.1030835,7.3169448 0 0 1 7.04662,10.22166 8.1022415,7.3161843 0 1 0 -13.60043,-7.65771 8.0862303,7.3017261 0 0 1 6.55381,-2.56395 z"
     fill="#3f3d56"
     id="path60-0"
     style="fill:#e6e6e6;fill-opacity:1;stroke-width:0.120305" />
  <path
     d="m 733.2522,134.9987 v 0 a 4.4041181,3.9768426 0 0 1 -4.40453,-3.91235 c -0.0536,-3.02455 -0.0814,-6.75091 -0.0814,-7.17675 a 11.901181,10.746561 0 0 1 0.49041,-3.06013 l -0.002,-3.6e-4 a 12.036027,10.868325 0 0 1 0.69557,-1.45197 13.932344,12.580667 0 0 0 -1.96161,3.28106 l 0.002,3.6e-4 a 11.901181,10.746561 0 0 0 -0.49041,3.06013 c 0,0.42584 0.0277,4.15229 0.0814,7.17684 a 4.4041181,3.9768426 0 0 0 4.40452,3.91226 v 0 a 4.4061501,3.9786775 0 0 0 4.22878,-2.86361 4.3880686,3.9623503 0 0 1 -2.96275,1.03452 z"
     fill="#3f3d56"
     id="path62-2"
     style="fill:#e6e6e6;fill-opacity:1;stroke-width:0.120305" />
  <path
     d="m 730.98898,151.54561 a 5.8229499,5.2580232 0 0 1 -2.16114,-8.17272 5.8233803,5.2584118 0 1 0 7.92141,7.59818 5.8198404,5.2552154 0 0 1 -5.76027,0.57454 z"
     fill="#3f3d56"
     id="path90-2-4"
     style="fill:#e6e6e6;fill-opacity:1;stroke-width:0.120305" />
  <ellipse
     cx="772.04211"
     cy="286.75272"
     fill="#6c63ff"
     id="circle2-2-9"
     rx="5.2497735"
     ry="3.8089068"
     style="fill:#e6e6e6;fill-opacity:1;stroke-width:0.0972102" />
  <ellipse
     cx="769.75958"
     cy="273.66995"
     fill="#f2f2f2"
     id="circle18-8"
     rx="2.7390125"
     ry="1.9872557"
     style="fill:#e6e6e6;fill-opacity:1;stroke-width:0.0972102" />
  <path
     d="m 771.47973,247.00788 c -8.20469,0.0424 -14.9226,4.87951 -15.03915,10.83189 -0.002,0.0548 -0.002,0.44139 -0.002,0.94677 a 3.8514827,2.7943946 0 0 0 3.85104,2.79425 h 10e-6 a 3.8538531,2.7961144 0 0 0 3.85301,-2.79855 c -3.5e-4,-0.3438 -5.7e-4,-0.58171 -5.7e-4,-0.59632 a 7.3040751,5.2993795 0 1 1 11.24368,4.46135 h 7.5e-4 c 0,0 -5.48126,2.56024 -7.15234,6.07235 l 7.5e-4,2.6e-4 a 10.728242,7.7837405 0 0 0 -0.44207,2.21645 c 0,0.30844 0.025,3.00751 0.0733,5.19813 a 3.9700261,2.8804022 0 0 0 3.97043,2.83365 h 10e-6 a 3.9710977,2.8811797 0 0 0 3.97087,-2.89889 c -0.0168,-2.00626 -0.0259,-4.34236 -0.0259,-4.51191 0,-2.15657 2.86744,-4.30524 5.22281,-5.70651 2.71229,-1.6136 4.66407,-3.81251 5.44802,-6.29291 a 9.9017351,7.1840787 0 0 0 0.28523,-1.55946 15.150162,10.992008 0 0 0 -15.25961,-10.99172 z"
     fill="#6c63ff"
     id="path24-2-1"
     style="fill:#e6e6e6;fill-opacity:1;stroke-width:0.0972102" />
  <path
     d="m 761.37748,260.25911 v 0 a 3.8515079,2.7944128 0 0 1 -3.85106,-2.79418 c -6e-5,-0.50545 4.5e-4,-0.89184 0.002,-0.94683 a 15.008331,10.889105 0 0 1 1.75285,-4.96054 15.042109,10.913612 0 0 0 -2.89409,6.28541 c -0.002,0.0548 -0.002,0.44139 -0.002,0.94677 a 3.8515079,2.7944128 0 0 0 3.85107,2.79425 v 0 a 3.8543393,2.7964671 0 0 0 3.70768,-2.03621 3.8371817,2.7840186 0 0 1 -2.56643,0.71133 z"
     fill="#3f3d56"
     id="path58-0"
     style="fill:#e6e6e6;fill-opacity:1;stroke-width:0.0972102" />
  <path
     d="m 771.74078,252.89561 a 7.3044721,5.2996675 0 0 1 6.35214,7.40356 7.3037131,5.2991166 0 1 0 -12.26003,-5.54649 7.2892799,5.2886446 0 0 1 5.90789,-1.85707 z"
     fill="#3f3d56"
     id="path60-1"
     style="fill:#e6e6e6;fill-opacity:1;stroke-width:0.0972102" />
  <path
     d="m 772.92561,277.64767 v 0 a 3.9700637,2.8804294 0 0 1 -3.97043,-2.83372 c -0.0483,-2.19068 -0.0733,-4.88969 -0.0733,-5.19812 a 10.728242,7.7837405 0 0 1 0.44207,-2.21646 l -0.002,-2.6e-4 a 10.849798,7.8719341 0 0 1 0.62702,-1.05167 12.559221,9.1121847 0 0 0 -1.76828,2.37648 l 0.002,2.6e-4 a 10.728242,7.7837405 0 0 0 -0.44207,2.21646 c 0,0.30843 0.025,3.0075 0.0733,5.19819 a 3.9700637,2.8804294 0 0 0 3.97043,2.83365 v 0 a 3.9718954,2.8817585 0 0 0 3.81201,-2.07411 3.955596,2.8699327 0 0 1 -2.67076,0.7493 z"
     fill="#3f3d56"
     id="path62-3"
     style="fill:#e6e6e6;fill-opacity:1;stroke-width:0.0972102" />
  <path
     d="m 770.88545,289.6326 a 5.2490604,3.8083893 0 0 1 -1.94815,-5.9195 5.2494484,3.8086708 0 1 0 7.14071,5.50336 5.2462574,3.8063557 0 0 1 -5.19256,0.41614 z"
     fill="#3f3d56"
     id="path90-2-1"
     style="fill:#e6e6e6;fill-opacity:1;stroke-width:0.0972102" />
  <ellipse
     cx="163.08914"
     cy="232.14311"
     fill="#6c63ff"
     id="circle2-2-0"
     rx="5.2497735"
     ry="3.6639237"
     style="fill:#e6e6e6;fill-opacity:1;stroke-width:0.0953422" />
  <ellipse
     cx="160.80661"
     cy="219.55833"
     fill="#f2f2f2"
     id="circle18-57"
     rx="2.7390125"
     ry="1.9116124"
     style="fill:#e6e6e6;fill-opacity:1;stroke-width:0.0953422" />
  <path
     d="m 162.52677,193.91112 c -8.20469,0.0408 -14.9226,4.69378 -15.03915,10.41959 -0.001,0.0527 -0.001,0.42458 -0.001,0.91073 a 3.8514827,2.6880281 0 0 0 3.85104,2.68788 h 0 a 3.8538531,2.6896825 0 0 0 3.85301,-2.69202 c -3.4e-4,-0.33071 -5.6e-4,-0.55957 -5.6e-4,-0.57363 a 7.3040751,5.0976628 0 1 1 11.24367,4.29154 h 7.6e-4 c 0,0 -5.48126,2.46279 -7.15235,5.84121 l 7.6e-4,2.5e-4 a 10.728242,7.4874584 0 0 0 -0.44208,2.13208 c 0,0.2967 0.025,2.89303 0.0733,5.00026 a 3.9700261,2.7707619 0 0 0 3.97044,2.72579 h 1e-5 a 3.9710977,2.7715099 0 0 0 3.97086,-2.78854 c -0.0168,-1.92989 -0.0259,-4.17707 -0.0259,-4.34016 0,-2.07448 2.86744,-4.14137 5.22281,-5.4893 2.71229,-1.55219 4.66407,-3.66739 5.44802,-6.05337 a 9.9017351,6.9106223 0 0 0 0.28523,-1.50011 15.150162,10.573606 0 0 0 -15.25961,-10.57333 z"
     fill="#6c63ff"
     id="path24-2-37"
     style="fill:#e6e6e6;fill-opacity:1;stroke-width:0.0953422" />
  <path
     d="m 152.42452,206.65795 v 0 a 3.8515079,2.6880457 0 0 1 -3.85106,-2.68782 c -6e-5,-0.48621 4.5e-4,-0.85789 0.001,-0.91079 a 15.008331,10.47462 0 0 1 1.75284,-4.77172 15.042109,10.498194 0 0 0 -2.89409,6.04616 c -0.001,0.0527 -0.001,0.42459 -0.001,0.91073 a 3.8515079,2.6880457 0 0 0 3.85107,2.68789 v 0 a 3.8543393,2.6900218 0 0 0 3.70769,-1.9587 3.8371817,2.6780471 0 0 1 -2.56644,0.68425 z"
     fill="#3f3d56"
     id="path58-6"
     style="fill:#e6e6e6;fill-opacity:1;stroke-width:0.0953422" />
  <path
     d="m 162.78782,199.57474 a 7.3044721,5.0979398 0 0 1 6.35214,7.12174 7.3037131,5.0974099 0 1 0 -12.26003,-5.33536 7.2892799,5.0873364 0 0 1 5.90789,-1.78638 z"
     fill="#3f3d56"
     id="path60-86"
     style="fill:#e6e6e6;fill-opacity:1;stroke-width:0.0953422" />
  <path
     d="m 163.97265,223.38463 v 0 a 3.9700637,2.7707881 0 0 1 -3.97043,-2.72586 c -0.0483,-2.10729 -0.0733,-4.70356 -0.0733,-5.00026 a 10.728242,7.4874584 0 0 1 0.44208,-2.13208 l -0.001,-2.5e-4 a 10.849798,7.5722951 0 0 1 0.62702,-1.01164 12.559221,8.7653364 0 0 0 -1.76828,2.28602 l 0.002,2.5e-4 a 10.728242,7.4874584 0 0 0 -0.44208,2.13208 c 0,0.2967 0.025,2.89303 0.0733,5.00033 a 3.9700637,2.7707881 0 0 0 3.97043,2.72579 v 0 a 3.9718954,2.7720666 0 0 0 3.81201,-1.99516 3.955596,2.7606909 0 0 1 -2.67076,0.72078 z"
     fill="#3f3d56"
     id="path62-1"
     style="fill:#e6e6e6;fill-opacity:1;stroke-width:0.0953422" />
  <path
     d="m 161.93249,234.91337 a 5.2490604,3.6634259 0 0 1 -1.94815,-5.69418 5.2494484,3.6636967 0 1 0 7.14071,5.29388 5.2462574,3.6614697 0 0 1 -5.19256,0.4003 z"
     fill="#3f3d56"
     id="path90-2-46"
     style="fill:#e6e6e6;fill-opacity:1;stroke-width:0.0953422" />
</svg>
